<?xml version="1.0" encoding="utf-8" standalone="no"?>
<!DOCTYPE svg PUBLIC "-//W3C//DTD SVG 1.1//EN"
  "http://www.w3.org/Graphics/SVG/1.1/DTD/svg11.dtd">
<svg xmlns:xlink="http://www.w3.org/1999/xlink" width="498.166875pt" height="236.16pt" viewBox="0 0 498.166875 236.16" xmlns="http://www.w3.org/2000/svg" version="1.1">
 <metadata>
  <rdf:RDF xmlns:dc="http://purl.org/dc/elements/1.1/" xmlns:cc="http://creativecommons.org/ns#" xmlns:rdf="http://www.w3.org/1999/02/22-rdf-syntax-ns#">
   <cc:Work>
    <dc:type rdf:resource="http://purl.org/dc/dcmitype/StillImage"/>
    <dc:date>2026-04-23T20:10:37.925791</dc:date>
    <dc:format>image/svg+xml</dc:format>
    <dc:creator>
     <cc:Agent>
      <dc:title>Matplotlib v3.10.8, https://matplotlib.org/</dc:title>
     </cc:Agent>
    </dc:creator>
   </cc:Work>
  </rdf:RDF>
 </metadata>
 <defs>
  <style type="text/css">*{stroke-linejoin: round; stroke-linecap: butt}</style>
 </defs>
 <g id="figure_1">
  <g id="patch_1">
   <path d="M 0 236.16 
L 498.166875 236.16 
L 498.166875 0 
L 0 0 
z
" style="fill: #ffffff"/>
  </g>
  <g id="axes_1">
   <g id="patch_2">
    <path d="M 53.893594 194.333281 
L 490.966875 194.333281 
L 490.966875 7.2 
L 53.893594 7.2 
z
" style="fill: #ffffff"/>
   </g>
   <g id="matplotlib.axis_1">
    <g id="xtick_1">
     <g id="line2d_1">
      <defs>
       <path id="mc3f3c15cd3" d="M 0 0 
L 0 -4 
" style="stroke: #555555; stroke-width: 0.8"/>
      </defs>
      <g>
       <use xlink:href="#mc3f3c15cd3" x="53.893594" y="194.333281" style="fill: #555555; stroke: #555555; stroke-width: 0.8"/>
      </g>
     </g>
     <g id="text_1">
      <!-- 0 -->
      <g style="fill: #333333" transform="translate(50.557969 206.402031) scale(0.12 -0.12)">
       <defs>
        <path id="HelveticaNeue-30" d="M 845 2234 
Q 845 2400 848 2601 
Q 851 2803 880 3004 
Q 909 3206 963 3398 
Q 1018 3590 1123 3734 
Q 1229 3878 1389 3968 
Q 1549 4058 1779 4058 
Q 2010 4058 2170 3968 
Q 2330 3878 2435 3734 
Q 2541 3590 2595 3398 
Q 2650 3206 2678 3004 
Q 2707 2803 2710 2601 
Q 2714 2400 2714 2234 
Q 2714 1978 2698 1661 
Q 2682 1344 2595 1065 
Q 2509 787 2317 595 
Q 2125 403 1779 403 
Q 1434 403 1242 595 
Q 1050 787 963 1065 
Q 877 1344 861 1661 
Q 845 1978 845 2234 
z
M 269 2227 
Q 269 1978 281 1709 
Q 294 1440 345 1184 
Q 397 928 493 701 
Q 589 474 755 301 
Q 922 128 1174 29 
Q 1427 -70 1779 -70 
Q 2138 -70 2387 29 
Q 2637 128 2803 301 
Q 2970 474 3066 701 
Q 3162 928 3213 1184 
Q 3264 1440 3277 1709 
Q 3290 1978 3290 2227 
Q 3290 2477 3277 2745 
Q 3264 3014 3213 3270 
Q 3162 3526 3066 3756 
Q 2970 3987 2803 4160 
Q 2637 4333 2384 4435 
Q 2131 4538 1779 4538 
Q 1427 4538 1174 4435 
Q 922 4333 755 4160 
Q 589 3987 493 3756 
Q 397 3526 345 3270 
Q 294 3014 281 2745 
Q 269 2477 269 2227 
z
" transform="scale(0.015625)"/>
       </defs>
       <use xlink:href="#HelveticaNeue-30"/>
      </g>
     </g>
    </g>
    <g id="xtick_2">
     <g id="line2d_2">
      <g>
       <use xlink:href="#mc3f3c15cd3" x="131.942394" y="194.333281" style="fill: #555555; stroke: #555555; stroke-width: 0.8"/>
      </g>
     </g>
     <g id="text_2">
      <!-- 10 -->
      <g style="fill: #333333" transform="translate(125.271144 206.402031) scale(0.12 -0.12)">
       <defs>
        <path id="HelveticaNeue-31" d="M 2278 0 
L 2278 4538 
L 1862 4538 
Q 1818 4282 1696 4115 
Q 1574 3949 1398 3853 
Q 1222 3757 1004 3721 
Q 787 3686 557 3686 
L 557 3251 
L 1734 3251 
L 1734 0 
L 2278 0 
z
" transform="scale(0.015625)"/>
       </defs>
       <use xlink:href="#HelveticaNeue-31"/>
       <use xlink:href="#HelveticaNeue-30" transform="translate(55.599991 0)"/>
      </g>
     </g>
    </g>
    <g id="xtick_3">
     <g id="line2d_3">
      <g>
       <use xlink:href="#mc3f3c15cd3" x="209.991194" y="194.333281" style="fill: #555555; stroke: #555555; stroke-width: 0.8"/>
      </g>
     </g>
     <g id="text_3">
      <!-- 20 -->
      <g style="fill: #333333" transform="translate(203.319944 206.402031) scale(0.12 -0.12)">
       <defs>
        <path id="HelveticaNeue-32" d="M 282 2931 
L 826 2931 
Q 819 3136 867 3337 
Q 915 3539 1024 3699 
Q 1133 3859 1302 3958 
Q 1472 4058 1709 4058 
Q 1888 4058 2048 4000 
Q 2208 3942 2326 3833 
Q 2445 3725 2515 3574 
Q 2586 3424 2586 3238 
Q 2586 3002 2512 2822 
Q 2438 2643 2294 2489 
Q 2150 2336 1932 2185 
Q 1715 2035 1427 1856 
Q 1190 1715 972 1555 
Q 755 1395 582 1184 
Q 410 973 298 688 
Q 186 403 154 0 
L 3117 0 
L 3117 480 
L 787 480 
Q 826 691 950 854 
Q 1075 1018 1251 1158 
Q 1427 1299 1638 1424 
Q 1850 1549 2061 1677 
Q 2272 1811 2470 1958 
Q 2669 2106 2822 2288 
Q 2976 2470 3069 2700 
Q 3162 2931 3162 3232 
Q 3162 3552 3050 3795 
Q 2938 4038 2746 4201 
Q 2554 4365 2294 4451 
Q 2035 4538 1741 4538 
Q 1382 4538 1100 4416 
Q 819 4294 630 4080 
Q 442 3866 352 3571 
Q 262 3277 282 2931 
z
" transform="scale(0.015625)"/>
       </defs>
       <use xlink:href="#HelveticaNeue-32"/>
       <use xlink:href="#HelveticaNeue-30" transform="translate(55.599991 0)"/>
      </g>
     </g>
    </g>
    <g id="xtick_4">
     <g id="line2d_4">
      <g>
       <use xlink:href="#mc3f3c15cd3" x="288.039994" y="194.333281" style="fill: #555555; stroke: #555555; stroke-width: 0.8"/>
      </g>
     </g>
     <g id="text_4">
      <!-- 30 -->
      <g style="fill: #333333" transform="translate(281.368744 206.402031) scale(0.12 -0.12)">
       <defs>
        <path id="HelveticaNeue-33" d="M 1395 2592 
L 1395 2131 
Q 1549 2150 1722 2150 
Q 1926 2150 2102 2096 
Q 2278 2042 2406 1930 
Q 2534 1818 2611 1654 
Q 2688 1491 2688 1280 
Q 2688 1075 2608 912 
Q 2528 749 2393 637 
Q 2259 525 2080 464 
Q 1901 403 1702 403 
Q 1235 403 992 681 
Q 749 960 736 1402 
L 192 1402 
Q 186 1050 291 774 
Q 397 499 595 310 
Q 794 122 1075 26 
Q 1357 -70 1702 -70 
Q 2022 -70 2307 16 
Q 2592 102 2803 275 
Q 3014 448 3139 707 
Q 3264 966 3264 1306 
Q 3264 1715 3062 2016 
Q 2861 2317 2445 2406 
L 2445 2419 
Q 2714 2541 2893 2777 
Q 3072 3014 3072 3322 
Q 3072 3635 2966 3865 
Q 2861 4096 2675 4243 
Q 2490 4390 2237 4464 
Q 1984 4538 1690 4538 
Q 1350 4538 1091 4429 
Q 832 4320 659 4128 
Q 486 3936 393 3667 
Q 301 3398 288 3072 
L 832 3072 
Q 832 3270 883 3449 
Q 934 3629 1040 3763 
Q 1146 3898 1309 3978 
Q 1472 4058 1690 4058 
Q 2035 4058 2265 3875 
Q 2496 3693 2496 3328 
Q 2496 3149 2425 3008 
Q 2355 2867 2236 2774 
Q 2118 2682 1961 2634 
Q 1805 2586 1632 2586 
L 1517 2586 
Q 1485 2586 1453 2586 
Q 1427 2586 1395 2592 
z
" transform="scale(0.015625)"/>
       </defs>
       <use xlink:href="#HelveticaNeue-33"/>
       <use xlink:href="#HelveticaNeue-30" transform="translate(55.599991 0)"/>
      </g>
     </g>
    </g>
    <g id="xtick_5">
     <g id="line2d_5">
      <g>
       <use xlink:href="#mc3f3c15cd3" x="366.088795" y="194.333281" style="fill: #555555; stroke: #555555; stroke-width: 0.8"/>
      </g>
     </g>
     <g id="text_5">
      <!-- 40 -->
      <g style="fill: #333333" transform="translate(359.417545 206.402031) scale(0.12 -0.12)">
       <defs>
        <path id="HelveticaNeue-34" d="M 2170 1542 
L 646 1542 
L 2157 3763 
L 2170 3763 
L 2170 1542 
z
M 2682 1542 
L 2682 4538 
L 2246 4538 
L 179 1587 
L 179 1062 
L 2170 1062 
L 2170 0 
L 2682 0 
L 2682 1062 
L 3296 1062 
L 3296 1542 
L 2682 1542 
z
" transform="scale(0.015625)"/>
       </defs>
       <use xlink:href="#HelveticaNeue-34"/>
       <use xlink:href="#HelveticaNeue-30" transform="translate(55.599991 0)"/>
      </g>
     </g>
    </g>
    <g id="xtick_6">
     <g id="line2d_6">
      <g>
       <use xlink:href="#mc3f3c15cd3" x="444.137595" y="194.333281" style="fill: #555555; stroke: #555555; stroke-width: 0.8"/>
      </g>
     </g>
     <g id="text_6">
      <!-- 50 -->
      <g style="fill: #333333" transform="translate(437.466345 206.402031) scale(0.12 -0.12)">
       <defs>
        <path id="HelveticaNeue-35" d="M 3008 3981 
L 3008 4461 
L 768 4461 
L 346 2106 
L 813 2080 
Q 973 2272 1181 2390 
Q 1389 2509 1658 2509 
Q 1888 2509 2077 2432 
Q 2266 2355 2400 2217 
Q 2534 2080 2608 1891 
Q 2682 1702 2682 1478 
Q 2682 1210 2605 1008 
Q 2528 806 2397 672 
Q 2266 538 2090 470 
Q 1914 403 1722 403 
Q 1517 403 1347 464 
Q 1178 525 1053 637 
Q 928 749 854 899 
Q 781 1050 768 1222 
L 224 1222 
Q 230 915 345 672 
Q 461 429 659 265 
Q 858 102 1117 16 
Q 1376 -70 1670 -70 
Q 2067 -70 2364 54 
Q 2662 179 2860 390 
Q 3059 602 3158 874 
Q 3258 1146 3258 1434 
Q 3258 1824 3142 2115 
Q 3027 2406 2828 2601 
Q 2630 2797 2361 2893 
Q 2093 2989 1792 2989 
Q 1562 2989 1328 2909 
Q 1094 2829 947 2662 
L 934 2675 
L 1178 3981 
L 3008 3981 
z
" transform="scale(0.015625)"/>
       </defs>
       <use xlink:href="#HelveticaNeue-35"/>
       <use xlink:href="#HelveticaNeue-30" transform="translate(55.599991 0)"/>
      </g>
     </g>
    </g>
    <g id="text_7">
     <!-- k (Frequency Index) -->
     <g style="fill: #333333" transform="translate(215.480078 226.268594) scale(0.13 -0.13)">
      <defs>
       <path id="HelveticaNeue-6b" d="M 442 4570 
L 442 0 
L 986 0 
L 986 1254 
L 1498 1728 
L 2630 0 
L 3322 0 
L 1914 2106 
L 3226 3309 
L 2496 3309 
L 986 1862 
L 986 4570 
L 442 4570 
z
" transform="scale(0.015625)"/>
       <path id="HelveticaNeue-20" transform="scale(0.015625)"/>
       <path id="HelveticaNeue-28" d="M 1306 -1261 
L 1722 -1261 
Q 1267 -525 1072 198 
Q 877 922 877 1728 
Q 877 2515 1069 3232 
Q 1261 3949 1722 4678 
L 1306 4678 
Q 806 4019 553 3251 
Q 301 2483 301 1728 
Q 301 1306 371 922 
Q 442 538 573 173 
Q 704 -192 889 -547 
Q 1075 -902 1306 -1261 
z
" transform="scale(0.015625)"/>
       <path id="HelveticaNeue-46" d="M 499 4570 
L 499 0 
L 1107 0 
L 1107 2093 
L 3206 2093 
L 3206 2605 
L 1107 2605 
L 1107 4058 
L 3501 4058 
L 3501 4570 
L 499 4570 
z
" transform="scale(0.015625)"/>
       <path id="HelveticaNeue-72" d="M 390 3309 
L 390 0 
L 934 0 
L 934 1472 
Q 934 1792 998 2038 
Q 1062 2285 1203 2457 
Q 1344 2630 1574 2720 
Q 1805 2810 2131 2810 
L 2131 3386 
Q 1690 3398 1402 3206 
Q 1114 3014 915 2611 
L 902 2611 
L 902 3309 
L 390 3309 
z
" transform="scale(0.015625)"/>
       <path id="HelveticaNeue-65" d="M 2707 1971 
L 806 1971 
Q 819 2163 889 2332 
Q 960 2502 1081 2630 
Q 1203 2758 1372 2832 
Q 1542 2906 1754 2906 
Q 1958 2906 2128 2832 
Q 2298 2758 2422 2633 
Q 2547 2509 2620 2336 
Q 2694 2163 2707 1971 
z
M 3232 1050 
L 2694 1050 
Q 2624 723 2403 563 
Q 2182 403 1837 403 
Q 1568 403 1369 492 
Q 1171 582 1043 732 
Q 915 883 857 1078 
Q 800 1274 806 1491 
L 3283 1491 
Q 3296 1792 3229 2125 
Q 3162 2458 2986 2739 
Q 2810 3021 2518 3203 
Q 2227 3386 1786 3386 
Q 1446 3386 1161 3258 
Q 877 3130 669 2899 
Q 461 2669 345 2355 
Q 230 2042 230 1664 
Q 243 1286 342 966 
Q 442 646 640 416 
Q 838 186 1129 58 
Q 1421 -70 1818 -70 
Q 2381 -70 2752 211 
Q 3123 493 3232 1050 
z
" transform="scale(0.015625)"/>
       <path id="HelveticaNeue-71" d="M 806 1626 
Q 806 1869 857 2099 
Q 909 2330 1024 2509 
Q 1139 2688 1331 2797 
Q 1523 2906 1798 2906 
Q 2080 2906 2278 2800 
Q 2477 2694 2601 2521 
Q 2726 2349 2784 2121 
Q 2842 1894 2842 1651 
Q 2842 1421 2787 1197 
Q 2733 973 2611 797 
Q 2490 621 2298 512 
Q 2106 403 1830 403 
Q 1568 403 1373 505 
Q 1178 608 1053 781 
Q 928 954 867 1174 
Q 806 1395 806 1626 
z
M 3366 -1261 
L 3366 3309 
L 2822 3309 
L 2822 2867 
L 2810 2867 
Q 2720 3014 2589 3113 
Q 2458 3213 2310 3273 
Q 2163 3334 2016 3360 
Q 1869 3386 1741 3386 
Q 1363 3386 1078 3248 
Q 794 3110 605 2876 
Q 416 2643 323 2329 
Q 230 2016 230 1664 
Q 230 1312 326 998 
Q 422 685 611 448 
Q 800 211 1085 70 
Q 1370 -70 1754 -70 
Q 2099 -70 2387 51 
Q 2675 173 2810 448 
L 2822 448 
L 2822 -1261 
L 3366 -1261 
z
" transform="scale(0.015625)"/>
       <path id="HelveticaNeue-75" d="M 3149 0 
L 3149 3309 
L 2605 3309 
L 2605 1440 
Q 2605 1216 2544 1027 
Q 2483 838 2361 697 
Q 2240 557 2057 480 
Q 1875 403 1626 403 
Q 1312 403 1133 582 
Q 954 762 954 1069 
L 954 3309 
L 410 3309 
L 410 1133 
Q 410 864 464 643 
Q 518 422 652 262 
Q 787 102 1004 16 
Q 1222 -70 1549 -70 
Q 1914 -70 2182 74 
Q 2451 218 2624 525 
L 2637 525 
L 2637 0 
L 3149 0 
z
" transform="scale(0.015625)"/>
       <path id="HelveticaNeue-6e" d="M 410 3309 
L 410 0 
L 954 0 
L 954 1869 
Q 954 2093 1014 2281 
Q 1075 2470 1196 2611 
Q 1318 2752 1500 2829 
Q 1683 2906 1933 2906 
Q 2246 2906 2425 2726 
Q 2605 2547 2605 2240 
L 2605 0 
L 3149 0 
L 3149 2176 
Q 3149 2445 3094 2665 
Q 3040 2886 2905 3046 
Q 2771 3206 2553 3296 
Q 2336 3386 2010 3386 
Q 1274 3386 934 2784 
L 922 2784 
L 922 3309 
L 410 3309 
z
" transform="scale(0.015625)"/>
       <path id="HelveticaNeue-63" d="M 2656 2246 
L 3219 2246 
Q 3187 2541 3065 2755 
Q 2944 2970 2755 3110 
Q 2566 3251 2320 3318 
Q 2074 3386 1792 3386 
Q 1402 3386 1107 3248 
Q 813 3110 617 2870 
Q 422 2630 326 2307 
Q 230 1984 230 1613 
Q 230 1242 329 931 
Q 429 621 624 397 
Q 819 173 1110 51 
Q 1402 -70 1779 -70 
Q 2413 -70 2781 262 
Q 3149 595 3238 1210 
L 2682 1210 
Q 2630 826 2403 614 
Q 2176 403 1773 403 
Q 1517 403 1331 505 
Q 1146 608 1030 777 
Q 915 947 860 1164 
Q 806 1382 806 1613 
Q 806 1862 857 2096 
Q 909 2330 1027 2509 
Q 1146 2688 1344 2797 
Q 1542 2906 1837 2906 
Q 2182 2906 2387 2733 
Q 2592 2560 2656 2246 
z
" transform="scale(0.015625)"/>
       <path id="HelveticaNeue-79" d="M 1709 -442 
Q 1613 -685 1520 -851 
Q 1427 -1018 1315 -1123 
Q 1203 -1229 1065 -1277 
Q 928 -1325 749 -1325 
Q 653 -1325 557 -1312 
Q 461 -1299 371 -1267 
L 371 -768 
Q 442 -800 534 -822 
Q 627 -845 691 -845 
Q 858 -845 970 -765 
Q 1082 -685 1139 -538 
L 1363 19 
L 51 3309 
L 666 3309 
L 1632 602 
L 1645 602 
L 2573 3309 
L 3149 3309 
L 1709 -442 
z
" transform="scale(0.015625)"/>
       <path id="HelveticaNeue-49" d="M 525 4570 
L 525 0 
L 1133 0 
L 1133 4570 
L 525 4570 
z
" transform="scale(0.015625)"/>
       <path id="HelveticaNeue-64" d="M 806 1626 
Q 806 1869 857 2099 
Q 909 2330 1024 2509 
Q 1139 2688 1331 2797 
Q 1523 2906 1798 2906 
Q 2080 2906 2278 2800 
Q 2477 2694 2601 2521 
Q 2726 2349 2784 2121 
Q 2842 1894 2842 1651 
Q 2842 1421 2787 1197 
Q 2733 973 2611 797 
Q 2490 621 2298 512 
Q 2106 403 1830 403 
Q 1568 403 1373 505 
Q 1178 608 1053 781 
Q 928 954 867 1174 
Q 806 1395 806 1626 
z
M 3366 0 
L 3366 4570 
L 2822 4570 
L 2822 2867 
L 2810 2867 
Q 2720 3014 2589 3113 
Q 2458 3213 2310 3273 
Q 2163 3334 2016 3360 
Q 1869 3386 1741 3386 
Q 1363 3386 1078 3248 
Q 794 3110 605 2876 
Q 416 2643 323 2329 
Q 230 2016 230 1664 
Q 230 1312 326 998 
Q 422 685 611 448 
Q 800 211 1085 70 
Q 1370 -70 1754 -70 
Q 2099 -70 2387 51 
Q 2675 173 2810 448 
L 2822 448 
L 2822 0 
L 3366 0 
z
" transform="scale(0.015625)"/>
       <path id="HelveticaNeue-78" d="M 1299 1741 
L 58 0 
L 717 0 
L 1638 1370 
L 2560 0 
L 3258 0 
L 1978 1786 
L 3117 3309 
L 2464 3309 
L 1638 2150 
L 845 3309 
L 147 3309 
L 1299 1741 
z
" transform="scale(0.015625)"/>
       <path id="HelveticaNeue-29" d="M -58 -1261 
L 352 -1261 
Q 851 -602 1104 163 
Q 1357 928 1357 1683 
Q 1357 2106 1286 2490 
Q 1216 2874 1085 3242 
Q 954 3610 768 3965 
Q 582 4320 352 4678 
L -58 4678 
Q 390 3942 585 3216 
Q 781 2490 781 1683 
Q 781 902 589 182 
Q 397 -538 -58 -1261 
z
" transform="scale(0.015625)"/>
      </defs>
      <use xlink:href="#HelveticaNeue-6b"/>
      <use xlink:href="#HelveticaNeue-20" transform="translate(51.899994 0)"/>
      <use xlink:href="#HelveticaNeue-28" transform="translate(79.699982 0)"/>
      <use xlink:href="#HelveticaNeue-46" transform="translate(105.599976 0)"/>
      <use xlink:href="#HelveticaNeue-72" transform="translate(162.999969 0)"/>
      <use xlink:href="#HelveticaNeue-65" transform="translate(194.549957 0)"/>
      <use xlink:href="#HelveticaNeue-71" transform="translate(248.249954 0)"/>
      <use xlink:href="#HelveticaNeue-75" transform="translate(307.549942 0)"/>
      <use xlink:href="#HelveticaNeue-65" transform="translate(363.149933 0)"/>
      <use xlink:href="#HelveticaNeue-6e" transform="translate(416.84993 0)"/>
      <use xlink:href="#HelveticaNeue-63" transform="translate(472.449921 0)"/>
      <use xlink:href="#HelveticaNeue-79" transform="translate(526.149918 0)"/>
      <use xlink:href="#HelveticaNeue-20" transform="translate(576.149902 0)"/>
      <use xlink:href="#HelveticaNeue-49" transform="translate(603.94989 0)"/>
      <use xlink:href="#HelveticaNeue-6e" transform="translate(629.849884 0)"/>
      <use xlink:href="#HelveticaNeue-64" transform="translate(685.449875 0)"/>
      <use xlink:href="#HelveticaNeue-65" transform="translate(744.749863 0)"/>
      <use xlink:href="#HelveticaNeue-78" transform="translate(798.44986 0)"/>
      <use xlink:href="#HelveticaNeue-29" transform="translate(850.249847 0)"/>
     </g>
    </g>
   </g>
   <g id="matplotlib.axis_2">
    <g id="ytick_1">
     <g id="line2d_7">
      <defs>
       <path id="m99a39fd961" d="M 0 0 
L 4 0 
" style="stroke: #555555; stroke-width: 0.8"/>
      </defs>
      <g>
       <use xlink:href="#m99a39fd961" x="53.893594" y="194.333281" style="fill: #555555; stroke: #555555; stroke-width: 0.8"/>
      </g>
     </g>
     <g id="text_8">
      <!-- 0.0 -->
      <g style="fill: #333333" transform="translate(33.715469 198.617656) scale(0.12 -0.12)">
       <defs>
        <path id="HelveticaNeue-2e" d="M 531 710 
L 531 0 
L 1242 0 
L 1242 710 
L 531 710 
z
" transform="scale(0.015625)"/>
       </defs>
       <use xlink:href="#HelveticaNeue-30"/>
       <use xlink:href="#HelveticaNeue-2e" transform="translate(55.599991 0)"/>
       <use xlink:href="#HelveticaNeue-30" transform="translate(83.399979 0)"/>
      </g>
     </g>
    </g>
    <g id="ytick_2">
     <g id="line2d_8">
      <g>
       <use xlink:href="#m99a39fd961" x="53.893594" y="164.809212" style="fill: #555555; stroke: #555555; stroke-width: 0.8"/>
      </g>
     </g>
     <g id="text_9">
      <!-- 2.5 -->
      <g style="fill: #333333" transform="translate(33.715469 169.093587) scale(0.12 -0.12)">
       <use xlink:href="#HelveticaNeue-32"/>
       <use xlink:href="#HelveticaNeue-2e" transform="translate(55.599991 0)"/>
       <use xlink:href="#HelveticaNeue-35" transform="translate(83.399979 0)"/>
      </g>
     </g>
    </g>
    <g id="ytick_3">
     <g id="line2d_9">
      <g>
       <use xlink:href="#m99a39fd961" x="53.893594" y="135.285143" style="fill: #555555; stroke: #555555; stroke-width: 0.8"/>
      </g>
     </g>
     <g id="text_10">
      <!-- 5.0 -->
      <g style="fill: #333333" transform="translate(33.715469 139.569518) scale(0.12 -0.12)">
       <use xlink:href="#HelveticaNeue-35"/>
       <use xlink:href="#HelveticaNeue-2e" transform="translate(55.599991 0)"/>
       <use xlink:href="#HelveticaNeue-30" transform="translate(83.399979 0)"/>
      </g>
     </g>
    </g>
    <g id="ytick_4">
     <g id="line2d_10">
      <g>
       <use xlink:href="#m99a39fd961" x="53.893594" y="105.761074" style="fill: #555555; stroke: #555555; stroke-width: 0.8"/>
      </g>
     </g>
     <g id="text_11">
      <!-- 7.5 -->
      <g style="fill: #333333" transform="translate(33.715469 110.045449) scale(0.12 -0.12)">
       <defs>
        <path id="HelveticaNeue-37" d="M 3258 3994 
L 3258 4461 
L 320 4461 
L 320 3949 
L 2701 3949 
Q 2342 3571 2032 3123 
Q 1722 2675 1485 2172 
Q 1248 1670 1097 1123 
Q 947 576 909 0 
L 1517 0 
Q 1549 531 1696 1094 
Q 1843 1658 2076 2189 
Q 2310 2720 2611 3187 
Q 2912 3654 3258 3994 
z
" transform="scale(0.015625)"/>
       </defs>
       <use xlink:href="#HelveticaNeue-37"/>
       <use xlink:href="#HelveticaNeue-2e" transform="translate(55.599991 0)"/>
       <use xlink:href="#HelveticaNeue-35" transform="translate(83.399979 0)"/>
      </g>
     </g>
    </g>
    <g id="ytick_5">
     <g id="line2d_11">
      <g>
       <use xlink:href="#m99a39fd961" x="53.893594" y="76.237004" style="fill: #555555; stroke: #555555; stroke-width: 0.8"/>
      </g>
     </g>
     <g id="text_12">
      <!-- 10.0 -->
      <g style="fill: #333333" transform="translate(27.044219 80.521379) scale(0.12 -0.12)">
       <use xlink:href="#HelveticaNeue-31"/>
       <use xlink:href="#HelveticaNeue-30" transform="translate(55.599991 0)"/>
       <use xlink:href="#HelveticaNeue-2e" transform="translate(111.199982 0)"/>
       <use xlink:href="#HelveticaNeue-30" transform="translate(138.999969 0)"/>
      </g>
     </g>
    </g>
    <g id="ytick_6">
     <g id="line2d_12">
      <g>
       <use xlink:href="#m99a39fd961" x="53.893594" y="46.712935" style="fill: #555555; stroke: #555555; stroke-width: 0.8"/>
      </g>
     </g>
     <g id="text_13">
      <!-- 12.5 -->
      <g style="fill: #333333" transform="translate(27.044219 50.99731) scale(0.12 -0.12)">
       <use xlink:href="#HelveticaNeue-31"/>
       <use xlink:href="#HelveticaNeue-32" transform="translate(55.599991 0)"/>
       <use xlink:href="#HelveticaNeue-2e" transform="translate(111.199982 0)"/>
       <use xlink:href="#HelveticaNeue-35" transform="translate(138.999969 0)"/>
      </g>
     </g>
    </g>
    <g id="ytick_7">
     <g id="line2d_13">
      <g>
       <use xlink:href="#m99a39fd961" x="53.893594" y="17.188866" style="fill: #555555; stroke: #555555; stroke-width: 0.8"/>
      </g>
     </g>
     <g id="text_14">
      <!-- 15.0 -->
      <g style="fill: #333333" transform="translate(27.044219 21.473241) scale(0.12 -0.12)">
       <use xlink:href="#HelveticaNeue-31"/>
       <use xlink:href="#HelveticaNeue-35" transform="translate(55.599991 0)"/>
       <use xlink:href="#HelveticaNeue-2e" transform="translate(111.199982 0)"/>
       <use xlink:href="#HelveticaNeue-30" transform="translate(138.999969 0)"/>
      </g>
     </g>
    </g>
    <g id="text_15">
     <!-- Fourier Power -->
     <g style="fill: #333333" transform="translate(16.482813 141.437344) rotate(-90) scale(0.13 -0.13)">
      <defs>
       <path id="HelveticaNeue-6f" d="M 806 1651 
Q 806 1952 886 2185 
Q 966 2419 1107 2579 
Q 1248 2739 1437 2822 
Q 1626 2906 1837 2906 
Q 2048 2906 2237 2822 
Q 2426 2739 2566 2579 
Q 2707 2419 2787 2185 
Q 2867 1952 2867 1651 
Q 2867 1350 2787 1116 
Q 2707 883 2566 726 
Q 2426 570 2237 486 
Q 2048 403 1837 403 
Q 1626 403 1437 486 
Q 1248 570 1107 726 
Q 966 883 886 1116 
Q 806 1350 806 1651 
z
M 230 1651 
Q 230 1286 332 972 
Q 435 659 640 425 
Q 845 192 1145 61 
Q 1446 -70 1837 -70 
Q 2234 -70 2531 61 
Q 2829 192 3033 425 
Q 3238 659 3340 972 
Q 3443 1286 3443 1651 
Q 3443 2016 3340 2333 
Q 3238 2650 3033 2883 
Q 2829 3117 2531 3251 
Q 2234 3386 1837 3386 
Q 1446 3386 1145 3251 
Q 845 3117 640 2883 
Q 435 2650 332 2333 
Q 230 2016 230 1651 
z
" transform="scale(0.015625)"/>
       <path id="HelveticaNeue-69" d="M 986 3904 
L 986 4570 
L 442 4570 
L 442 3904 
L 986 3904 
z
M 442 3309 
L 442 0 
L 986 0 
L 986 3309 
L 442 3309 
z
" transform="scale(0.015625)"/>
       <path id="HelveticaNeue-50" d="M 1107 2381 
L 1107 4058 
L 2298 4058 
Q 2816 4058 3056 3843 
Q 3296 3629 3296 3219 
Q 3296 2810 3056 2592 
Q 2816 2374 2298 2381 
L 1107 2381 
z
M 499 4570 
L 499 0 
L 1107 0 
L 1107 1869 
L 2502 1869 
Q 3194 1862 3549 2220 
Q 3904 2579 3904 3219 
Q 3904 3859 3549 4214 
Q 3194 4570 2502 4570 
L 499 4570 
z
" transform="scale(0.015625)"/>
       <path id="HelveticaNeue-77" d="M 3686 0 
L 4742 3309 
L 4179 3309 
L 3437 602 
L 3424 602 
L 2733 3309 
L 2138 3309 
L 1472 602 
L 1459 602 
L 710 3309 
L 109 3309 
L 1171 0 
L 1760 0 
L 2426 2630 
L 2438 2630 
L 3110 0 
L 3686 0 
z
" transform="scale(0.015625)"/>
      </defs>
      <use xlink:href="#HelveticaNeue-46"/>
      <use xlink:href="#HelveticaNeue-6f" transform="translate(57.399994 0)"/>
      <use xlink:href="#HelveticaNeue-75" transform="translate(114.799988 0)"/>
      <use xlink:href="#HelveticaNeue-72" transform="translate(170.399979 0)"/>
      <use xlink:href="#HelveticaNeue-69" transform="translate(203.699966 0)"/>
      <use xlink:href="#HelveticaNeue-65" transform="translate(225.899963 0)"/>
      <use xlink:href="#HelveticaNeue-72" transform="translate(279.59996 0)"/>
      <use xlink:href="#HelveticaNeue-20" transform="translate(312.899948 0)"/>
      <use xlink:href="#HelveticaNeue-50" transform="translate(340.699936 0)"/>
      <use xlink:href="#HelveticaNeue-6f" transform="translate(405.499924 0)"/>
      <use xlink:href="#HelveticaNeue-77" transform="translate(462.899918 0)"/>
      <use xlink:href="#HelveticaNeue-65" transform="translate(538.699905 0)"/>
      <use xlink:href="#HelveticaNeue-72" transform="translate(592.399902 0)"/>
     </g>
    </g>
   </g>
   <g id="patch_3">
    <path d="M 50.771642 194.333281 
L 57.015546 194.333281 
L 57.015546 193.789309 
L 50.771642 193.789309 
z
" clip-path="url(#p7004436557)" style="fill: #4c72b0"/>
   </g>
   <g id="patch_4">
    <path d="M 58.576522 194.333281 
L 64.820426 194.333281 
L 64.820426 193.402289 
L 58.576522 193.402289 
z
" clip-path="url(#p7004436557)" style="fill: #4c72b0"/>
   </g>
   <g id="patch_5">
    <path d="M 66.381402 194.333281 
L 72.625306 194.333281 
L 72.625306 193.513209 
L 66.381402 193.513209 
z
" clip-path="url(#p7004436557)" style="fill: #4c72b0"/>
   </g>
   <g id="patch_6">
    <path d="M 74.186282 194.333281 
L 80.430186 194.333281 
L 80.430186 193.438882 
L 74.186282 193.438882 
z
" clip-path="url(#p7004436557)" style="fill: #4c72b0"/>
   </g>
   <g id="patch_7">
    <path d="M 81.991162 194.333281 
L 88.235066 194.333281 
L 88.235066 193.401179 
L 81.991162 193.401179 
z
" clip-path="url(#p7004436557)" style="fill: #4c72b0"/>
   </g>
   <g id="patch_8">
    <path d="M 89.796042 194.333281 
L 96.039946 194.333281 
L 96.039946 193.516622 
L 89.796042 193.516622 
z
" clip-path="url(#p7004436557)" style="fill: #4c72b0"/>
   </g>
   <g id="patch_9">
    <path d="M 97.600922 194.333281 
L 103.844826 194.333281 
L 103.844826 193.462209 
L 97.600922 193.462209 
z
" clip-path="url(#p7004436557)" style="fill: #4c72b0"/>
   </g>
   <g id="patch_10">
    <path d="M 105.405802 194.333281 
L 111.649706 194.333281 
L 111.649706 193.437644 
L 105.405802 193.437644 
z
" clip-path="url(#p7004436557)" style="fill: #4c72b0"/>
   </g>
   <g id="patch_11">
    <path d="M 113.210682 194.333281 
L 119.454586 194.333281 
L 119.454586 193.433202 
L 113.210682 193.433202 
z
" clip-path="url(#p7004436557)" style="fill: #4c72b0"/>
   </g>
   <g id="patch_12">
    <path d="M 121.015562 194.333281 
L 127.259466 194.333281 
L 127.259466 191.913183 
L 121.015562 191.913183 
z
" clip-path="url(#p7004436557)" style="fill: #4c72b0"/>
   </g>
   <g id="patch_13">
    <path d="M 128.820442 194.333281 
L 135.064346 194.333281 
L 135.064346 193.244659 
L 128.820442 193.244659 
z
" clip-path="url(#p7004436557)" style="fill: #4c72b0"/>
   </g>
   <g id="patch_14">
    <path d="M 136.625322 194.333281 
L 142.869226 194.333281 
L 142.869226 153.397414 
L 136.625322 153.397414 
z
" clip-path="url(#p7004436557)" style="fill: #4c72b0"/>
   </g>
   <g id="patch_15">
    <path d="M 144.430202 194.333281 
L 150.674106 194.333281 
L 150.674106 192.945971 
L 144.430202 192.945971 
z
" clip-path="url(#p7004436557)" style="fill: #4c72b0"/>
   </g>
   <g id="patch_16">
    <path d="M 152.235082 194.333281 
L 158.478986 194.333281 
L 158.478986 193.289153 
L 152.235082 193.289153 
z
" clip-path="url(#p7004436557)" style="fill: #4c72b0"/>
   </g>
   <g id="patch_17">
    <path d="M 160.039962 194.333281 
L 166.283866 194.333281 
L 166.283866 193.314276 
L 160.039962 193.314276 
z
" clip-path="url(#p7004436557)" style="fill: #4c72b0"/>
   </g>
   <g id="patch_18">
    <path d="M 167.844842 194.333281 
L 174.088746 194.333281 
L 174.088746 193.218561 
L 167.844842 193.218561 
z
" clip-path="url(#p7004436557)" style="fill: #4c72b0"/>
   </g>
   <g id="patch_19">
    <path d="M 175.649722 194.333281 
L 181.893626 194.333281 
L 181.893626 193.336071 
L 175.649722 193.336071 
z
" clip-path="url(#p7004436557)" style="fill: #4c72b0"/>
   </g>
   <g id="patch_20">
    <path d="M 183.454602 194.333281 
L 189.698506 194.333281 
L 189.698506 193.440714 
L 183.454602 193.440714 
z
" clip-path="url(#p7004436557)" style="fill: #4c72b0"/>
   </g>
   <g id="patch_21">
    <path d="M 191.259482 194.333281 
L 197.503386 194.333281 
L 197.503386 193.368589 
L 191.259482 193.368589 
z
" clip-path="url(#p7004436557)" style="fill: #4c72b0"/>
   </g>
   <g id="patch_22">
    <path d="M 199.064362 194.333281 
L 205.308266 194.333281 
L 205.308266 193.190951 
L 199.064362 193.190951 
z
" clip-path="url(#p7004436557)" style="fill: #4c72b0"/>
   </g>
   <g id="patch_23">
    <path d="M 206.869242 194.333281 
L 213.113146 194.333281 
L 213.113146 192.914498 
L 206.869242 192.914498 
z
" clip-path="url(#p7004436557)" style="fill: #4c72b0"/>
   </g>
   <g id="patch_24">
    <path d="M 214.674122 194.333281 
L 220.918026 194.333281 
L 220.918026 192.777688 
L 214.674122 192.777688 
z
" clip-path="url(#p7004436557)" style="fill: #4c72b0"/>
   </g>
   <g id="patch_25">
    <path d="M 222.479002 194.333281 
L 228.722906 194.333281 
L 228.722906 190.567659 
L 222.479002 190.567659 
z
" clip-path="url(#p7004436557)" style="fill: #4c72b0"/>
   </g>
   <g id="patch_26">
    <path d="M 230.283882 194.333281 
L 236.527786 194.333281 
L 236.527786 184.893922 
L 230.283882 184.893922 
z
" clip-path="url(#p7004436557)" style="fill: #4c72b0"/>
   </g>
   <g id="patch_27">
    <path d="M 238.088762 194.333281 
L 244.332666 194.333281 
L 244.332666 16.111109 
L 238.088762 16.111109 
z
" clip-path="url(#p7004436557)" style="fill: #4c72b0"/>
   </g>
   <g id="patch_28">
    <path d="M 245.893642 194.333281 
L 252.137546 194.333281 
L 252.137546 180.560876 
L 245.893642 180.560876 
z
" clip-path="url(#p7004436557)" style="fill: #4c72b0"/>
   </g>
   <g id="patch_29">
    <path d="M 253.698522 194.333281 
L 259.942426 194.333281 
L 259.942426 190.956106 
L 253.698522 190.956106 
z
" clip-path="url(#p7004436557)" style="fill: #4c72b0"/>
   </g>
   <g id="patch_30">
    <path d="M 261.503402 194.333281 
L 267.747306 194.333281 
L 267.747306 192.380111 
L 261.503402 192.380111 
z
" clip-path="url(#p7004436557)" style="fill: #4c72b0"/>
   </g>
   <g id="patch_31">
    <path d="M 269.308282 194.333281 
L 275.552186 194.333281 
L 275.552186 192.958816 
L 269.308282 192.958816 
z
" clip-path="url(#p7004436557)" style="fill: #4c72b0"/>
   </g>
   <g id="patch_32">
    <path d="M 277.113162 194.333281 
L 283.357066 194.333281 
L 283.357066 193.014407 
L 277.113162 193.014407 
z
" clip-path="url(#p7004436557)" style="fill: #4c72b0"/>
   </g>
   <g id="patch_33">
    <path d="M 284.918042 194.333281 
L 291.161946 194.333281 
L 291.161946 193.164431 
L 284.918042 193.164431 
z
" clip-path="url(#p7004436557)" style="fill: #4c72b0"/>
   </g>
   <g id="patch_34">
    <path d="M 292.722922 194.333281 
L 298.966826 194.333281 
L 298.966826 193.229351 
L 292.722922 193.229351 
z
" clip-path="url(#p7004436557)" style="fill: #4c72b0"/>
   </g>
   <g id="patch_35">
    <path d="M 300.527802 194.333281 
L 306.771706 194.333281 
L 306.771706 193.307057 
L 300.527802 193.307057 
z
" clip-path="url(#p7004436557)" style="fill: #4c72b0"/>
   </g>
   <g id="patch_36">
    <path d="M 308.332682 194.333281 
L 314.576586 194.333281 
L 314.576586 193.085075 
L 308.332682 193.085075 
z
" clip-path="url(#p7004436557)" style="fill: #4c72b0"/>
   </g>
   <g id="patch_37">
    <path d="M 316.137563 194.333281 
L 322.381467 194.333281 
L 322.381467 193.31676 
L 316.137563 193.31676 
z
" clip-path="url(#p7004436557)" style="fill: #4c72b0"/>
   </g>
   <g id="patch_38">
    <path d="M 323.942443 194.333281 
L 330.186347 194.333281 
L 330.186347 193.224579 
L 323.942443 193.224579 
z
" clip-path="url(#p7004436557)" style="fill: #4c72b0"/>
   </g>
   <g id="patch_39">
    <path d="M 331.747323 194.333281 
L 337.991227 194.333281 
L 337.991227 193.216368 
L 331.747323 193.216368 
z
" clip-path="url(#p7004436557)" style="fill: #4c72b0"/>
   </g>
   <g id="patch_40">
    <path d="M 339.552203 194.333281 
L 345.796107 194.333281 
L 345.796107 193.135687 
L 339.552203 193.135687 
z
" clip-path="url(#p7004436557)" style="fill: #4c72b0"/>
   </g>
   <g id="patch_41">
    <path d="M 347.357083 194.333281 
L 353.600987 194.333281 
L 353.600987 193.080227 
L 347.357083 193.080227 
z
" clip-path="url(#p7004436557)" style="fill: #4c72b0"/>
   </g>
   <g id="patch_42">
    <path d="M 355.161963 194.333281 
L 361.405867 194.333281 
L 361.405867 193.019164 
L 355.161963 193.019164 
z
" clip-path="url(#p7004436557)" style="fill: #4c72b0"/>
   </g>
   <g id="patch_43">
    <path d="M 362.966843 194.333281 
L 369.210747 194.333281 
L 369.210747 192.811986 
L 362.966843 192.811986 
z
" clip-path="url(#p7004436557)" style="fill: #4c72b0"/>
   </g>
   <g id="patch_44">
    <path d="M 370.771723 194.333281 
L 377.015627 194.333281 
L 377.015627 192.38283 
L 370.771723 192.38283 
z
" clip-path="url(#p7004436557)" style="fill: #4c72b0"/>
   </g>
   <g id="patch_45">
    <path d="M 378.576603 194.333281 
L 384.820507 194.333281 
L 384.820507 192.024462 
L 378.576603 192.024462 
z
" clip-path="url(#p7004436557)" style="fill: #4c72b0"/>
   </g>
   <g id="patch_46">
    <path d="M 386.381483 194.333281 
L 392.625387 194.333281 
L 392.625387 190.999949 
L 386.381483 190.999949 
z
" clip-path="url(#p7004436557)" style="fill: #4c72b0"/>
   </g>
   <g id="patch_47">
    <path d="M 394.186363 194.333281 
L 400.430267 194.333281 
L 400.430267 186.533276 
L 394.186363 186.533276 
z
" clip-path="url(#p7004436557)" style="fill: #4c72b0"/>
   </g>
   <g id="patch_48">
    <path d="M 401.991243 194.333281 
L 408.235147 194.333281 
L 408.235147 110.621991 
L 401.991243 110.621991 
z
" clip-path="url(#p7004436557)" style="fill: #4c72b0"/>
   </g>
   <g id="patch_49">
    <path d="M 409.796123 194.333281 
L 416.040027 194.333281 
L 416.040027 154.782213 
L 409.796123 154.782213 
z
" clip-path="url(#p7004436557)" style="fill: #4c72b0"/>
   </g>
   <g id="patch_50">
    <path d="M 417.601003 194.333281 
L 423.844907 194.333281 
L 423.844907 186.473382 
L 417.601003 186.473382 
z
" clip-path="url(#p7004436557)" style="fill: #4c72b0"/>
   </g>
   <g id="patch_51">
    <path d="M 425.405883 194.333281 
L 431.649787 194.333281 
L 431.649787 188.526875 
L 425.405883 188.526875 
z
" clip-path="url(#p7004436557)" style="fill: #4c72b0"/>
   </g>
   <g id="patch_52">
    <path d="M 433.210763 194.333281 
L 439.454667 194.333281 
L 439.454667 187.307531 
L 433.210763 187.307531 
z
" clip-path="url(#p7004436557)" style="fill: #4c72b0"/>
   </g>
   <g id="patch_53">
    <path d="M 441.015643 194.333281 
L 447.259547 194.333281 
L 447.259547 182.626639 
L 441.015643 182.626639 
z
" clip-path="url(#p7004436557)" style="fill: #4c72b0"/>
   </g>
   <g id="patch_54">
    <path d="M 448.820523 194.333281 
L 455.064427 194.333281 
L 455.064427 120.189326 
L 448.820523 120.189326 
z
" clip-path="url(#p7004436557)" style="fill: #4c72b0"/>
   </g>
   <g id="patch_55">
    <path d="M 456.625403 194.333281 
L 462.869307 194.333281 
L 462.869307 38.61142 
L 456.625403 38.61142 
z
" clip-path="url(#p7004436557)" style="fill: #4c72b0"/>
   </g>
   <g id="patch_56">
    <path d="M 464.430283 194.333281 
L 470.674187 194.333281 
L 470.674187 105.75422 
L 464.430283 105.75422 
z
" clip-path="url(#p7004436557)" style="fill: #4c72b0"/>
   </g>
   <g id="patch_57">
    <path d="M 472.235163 194.333281 
L 478.479067 194.333281 
L 478.479067 180.463427 
L 472.235163 180.463427 
z
" clip-path="url(#p7004436557)" style="fill: #4c72b0"/>
   </g>
   <g id="patch_58">
    <path d="M 480.040043 194.333281 
L 486.283947 194.333281 
L 486.283947 187.397355 
L 480.040043 187.397355 
z
" clip-path="url(#p7004436557)" style="fill: #4c72b0"/>
   </g>
   <g id="patch_59">
    <path d="M 487.844923 194.333281 
L 494.088827 194.333281 
L 494.088827 189.365933 
L 487.844923 189.365933 
z
" clip-path="url(#p7004436557)" style="fill: #4c72b0"/>
   </g>
   <g id="patch_60">
    <path d="M 495.649803 194.333281 
L 501.893707 194.333281 
L 501.893707 189.892028 
L 495.649803 189.892028 
z
" clip-path="url(#p7004436557)" style="fill: #4c72b0"/>
   </g>
   <g id="patch_61">
    <path d="M 503.454683 194.333281 
L 509.698587 194.333281 
L 509.698587 189.365933 
L 503.454683 189.365933 
z
" clip-path="url(#p7004436557)" style="fill: #4c72b0"/>
   </g>
   <g id="patch_62">
    <path d="M 511.259563 194.333281 
L 517.503467 194.333281 
L 517.503467 187.397355 
L 511.259563 187.397355 
z
" clip-path="url(#p7004436557)" style="fill: #4c72b0"/>
   </g>
   <g id="patch_63">
    <path d="M 519.064443 194.333281 
L 525.308347 194.333281 
L 525.308347 180.463427 
L 519.064443 180.463427 
z
" clip-path="url(#p7004436557)" style="fill: #4c72b0"/>
   </g>
   <g id="patch_64">
    <path d="M 526.869323 194.333281 
L 533.113227 194.333281 
L 533.113227 105.75422 
L 526.869323 105.75422 
z
" clip-path="url(#p7004436557)" style="fill: #4c72b0"/>
   </g>
   <g id="patch_65">
    <path d="M 534.674203 194.333281 
L 540.918107 194.333281 
L 540.918107 38.61142 
L 534.674203 38.61142 
z
" clip-path="url(#p7004436557)" style="fill: #4c72b0"/>
   </g>
   <g id="patch_66">
    <path d="M 542.479083 194.333281 
L 548.722987 194.333281 
L 548.722987 120.189326 
L 542.479083 120.189326 
z
" clip-path="url(#p7004436557)" style="fill: #4c72b0"/>
   </g>
   <g id="patch_67">
    <path d="M 550.283963 194.333281 
L 556.527867 194.333281 
L 556.527867 182.626639 
L 550.283963 182.626639 
z
" clip-path="url(#p7004436557)" style="fill: #4c72b0"/>
   </g>
   <g id="patch_68">
    <path d="M 558.088843 194.333281 
L 564.332747 194.333281 
L 564.332747 187.307531 
L 558.088843 187.307531 
z
" clip-path="url(#p7004436557)" style="fill: #4c72b0"/>
   </g>
   <g id="patch_69">
    <path d="M 565.893723 194.333281 
L 572.137627 194.333281 
L 572.137627 188.526875 
L 565.893723 188.526875 
z
" clip-path="url(#p7004436557)" style="fill: #4c72b0"/>
   </g>
   <g id="patch_70">
    <path d="M 573.698603 194.333281 
L 579.942507 194.333281 
L 579.942507 186.473382 
L 573.698603 186.473382 
z
" clip-path="url(#p7004436557)" style="fill: #4c72b0"/>
   </g>
   <g id="patch_71">
    <path d="M 581.503483 194.333281 
L 587.747387 194.333281 
L 587.747387 154.782213 
L 581.503483 154.782213 
z
" clip-path="url(#p7004436557)" style="fill: #4c72b0"/>
   </g>
   <g id="patch_72">
    <path d="M 589.308363 194.333281 
L 595.552267 194.333281 
L 595.552267 110.621991 
L 589.308363 110.621991 
z
" clip-path="url(#p7004436557)" style="fill: #4c72b0"/>
   </g>
   <g id="patch_73">
    <path d="M 597.113243 194.333281 
L 603.357147 194.333281 
L 603.357147 186.533276 
L 597.113243 186.533276 
z
" clip-path="url(#p7004436557)" style="fill: #4c72b0"/>
   </g>
   <g id="patch_74">
    <path d="M 604.918123 194.333281 
L 611.162027 194.333281 
L 611.162027 190.999949 
L 604.918123 190.999949 
z
" clip-path="url(#p7004436557)" style="fill: #4c72b0"/>
   </g>
   <g id="patch_75">
    <path d="M 612.723003 194.333281 
L 618.966907 194.333281 
L 618.966907 192.024462 
L 612.723003 192.024462 
z
" clip-path="url(#p7004436557)" style="fill: #4c72b0"/>
   </g>
   <g id="patch_76">
    <path d="M 620.527883 194.333281 
L 626.771787 194.333281 
L 626.771787 192.38283 
L 620.527883 192.38283 
z
" clip-path="url(#p7004436557)" style="fill: #4c72b0"/>
   </g>
   <g id="patch_77">
    <path d="M 628.332763 194.333281 
L 634.576667 194.333281 
L 634.576667 192.811986 
L 628.332763 192.811986 
z
" clip-path="url(#p7004436557)" style="fill: #4c72b0"/>
   </g>
   <g id="patch_78">
    <path d="M 636.137643 194.333281 
L 642.381547 194.333281 
L 642.381547 193.019164 
L 636.137643 193.019164 
z
" clip-path="url(#p7004436557)" style="fill: #4c72b0"/>
   </g>
   <g id="patch_79">
    <path d="M 643.942523 194.333281 
L 650.186427 194.333281 
L 650.186427 193.080227 
L 643.942523 193.080227 
z
" clip-path="url(#p7004436557)" style="fill: #4c72b0"/>
   </g>
   <g id="patch_80">
    <path d="M 651.747403 194.333281 
L 657.991307 194.333281 
L 657.991307 193.135687 
L 651.747403 193.135687 
z
" clip-path="url(#p7004436557)" style="fill: #4c72b0"/>
   </g>
   <g id="patch_81">
    <path d="M 659.552283 194.333281 
L 665.796187 194.333281 
L 665.796187 193.216368 
L 659.552283 193.216368 
z
" clip-path="url(#p7004436557)" style="fill: #4c72b0"/>
   </g>
   <g id="patch_82">
    <path d="M 667.357164 194.333281 
L 673.601068 194.333281 
L 673.601068 193.224579 
L 667.357164 193.224579 
z
" clip-path="url(#p7004436557)" style="fill: #4c72b0"/>
   </g>
   <g id="patch_83">
    <path d="M 675.162044 194.333281 
L 681.405948 194.333281 
L 681.405948 193.31676 
L 675.162044 193.31676 
z
" clip-path="url(#p7004436557)" style="fill: #4c72b0"/>
   </g>
   <g id="patch_84">
    <path d="M 682.966924 194.333281 
L 689.210828 194.333281 
L 689.210828 193.085075 
L 682.966924 193.085075 
z
" clip-path="url(#p7004436557)" style="fill: #4c72b0"/>
   </g>
   <g id="patch_85">
    <path d="M 690.771804 194.333281 
L 697.015708 194.333281 
L 697.015708 193.307057 
L 690.771804 193.307057 
z
" clip-path="url(#p7004436557)" style="fill: #4c72b0"/>
   </g>
   <g id="patch_86">
    <path d="M 698.576684 194.333281 
L 704.820588 194.333281 
L 704.820588 193.229351 
L 698.576684 193.229351 
z
" clip-path="url(#p7004436557)" style="fill: #4c72b0"/>
   </g>
   <g id="patch_87">
    <path d="M 706.381564 194.333281 
L 712.625468 194.333281 
L 712.625468 193.164431 
L 706.381564 193.164431 
z
" clip-path="url(#p7004436557)" style="fill: #4c72b0"/>
   </g>
   <g id="patch_88">
    <path d="M 714.186444 194.333281 
L 720.430348 194.333281 
L 720.430348 193.014407 
L 714.186444 193.014407 
z
" clip-path="url(#p7004436557)" style="fill: #4c72b0"/>
   </g>
   <g id="patch_89">
    <path d="M 721.991324 194.333281 
L 728.235228 194.333281 
L 728.235228 192.958816 
L 721.991324 192.958816 
z
" clip-path="url(#p7004436557)" style="fill: #4c72b0"/>
   </g>
   <g id="patch_90">
    <path d="M 729.796204 194.333281 
L 736.040108 194.333281 
L 736.040108 192.380111 
L 729.796204 192.380111 
z
" clip-path="url(#p7004436557)" style="fill: #4c72b0"/>
   </g>
   <g id="patch_91">
    <path d="M 737.601084 194.333281 
L 743.844988 194.333281 
L 743.844988 190.956106 
L 737.601084 190.956106 
z
" clip-path="url(#p7004436557)" style="fill: #4c72b0"/>
   </g>
   <g id="patch_92">
    <path d="M 745.405964 194.333281 
L 751.649868 194.333281 
L 751.649868 180.560876 
L 745.405964 180.560876 
z
" clip-path="url(#p7004436557)" style="fill: #4c72b0"/>
   </g>
   <g id="patch_93">
    <path d="M 753.210844 194.333281 
L 759.454748 194.333281 
L 759.454748 16.111109 
L 753.210844 16.111109 
z
" clip-path="url(#p7004436557)" style="fill: #4c72b0"/>
   </g>
   <g id="patch_94">
    <path d="M 761.015724 194.333281 
L 767.259628 194.333281 
L 767.259628 184.893922 
L 761.015724 184.893922 
z
" clip-path="url(#p7004436557)" style="fill: #4c72b0"/>
   </g>
   <g id="patch_95">
    <path d="M 768.820604 194.333281 
L 775.064508 194.333281 
L 775.064508 190.567659 
L 768.820604 190.567659 
z
" clip-path="url(#p7004436557)" style="fill: #4c72b0"/>
   </g>
   <g id="patch_96">
    <path d="M 776.625484 194.333281 
L 782.869388 194.333281 
L 782.869388 192.777688 
L 776.625484 192.777688 
z
" clip-path="url(#p7004436557)" style="fill: #4c72b0"/>
   </g>
   <g id="patch_97">
    <path d="M 784.430364 194.333281 
L 790.674268 194.333281 
L 790.674268 192.914498 
L 784.430364 192.914498 
z
" clip-path="url(#p7004436557)" style="fill: #4c72b0"/>
   </g>
   <g id="patch_98">
    <path d="M 792.235244 194.333281 
L 798.479148 194.333281 
L 798.479148 193.190951 
L 792.235244 193.190951 
z
" clip-path="url(#p7004436557)" style="fill: #4c72b0"/>
   </g>
   <g id="patch_99">
    <path d="M 800.040124 194.333281 
L 806.284028 194.333281 
L 806.284028 193.368589 
L 800.040124 193.368589 
z
" clip-path="url(#p7004436557)" style="fill: #4c72b0"/>
   </g>
   <g id="patch_100">
    <path d="M 807.845004 194.333281 
L 814.088908 194.333281 
L 814.088908 193.440714 
L 807.845004 193.440714 
z
" clip-path="url(#p7004436557)" style="fill: #4c72b0"/>
   </g>
   <g id="patch_101">
    <path d="M 815.649884 194.333281 
L 821.893788 194.333281 
L 821.893788 193.336071 
L 815.649884 193.336071 
z
" clip-path="url(#p7004436557)" style="fill: #4c72b0"/>
   </g>
   <g id="patch_102">
    <path d="M 823.454764 194.333281 
L 829.698668 194.333281 
L 829.698668 193.218561 
L 823.454764 193.218561 
z
" clip-path="url(#p7004436557)" style="fill: #4c72b0"/>
   </g>
   <g id="patch_103">
    <path d="M 831.259644 194.333281 
L 837.503548 194.333281 
L 837.503548 193.314276 
L 831.259644 193.314276 
z
" clip-path="url(#p7004436557)" style="fill: #4c72b0"/>
   </g>
   <g id="patch_104">
    <path d="M 839.064524 194.333281 
L 845.308428 194.333281 
L 845.308428 193.289153 
L 839.064524 193.289153 
z
" clip-path="url(#p7004436557)" style="fill: #4c72b0"/>
   </g>
   <g id="patch_105">
    <path d="M 846.869404 194.333281 
L 853.113308 194.333281 
L 853.113308 192.945971 
L 846.869404 192.945971 
z
" clip-path="url(#p7004436557)" style="fill: #4c72b0"/>
   </g>
   <g id="patch_106">
    <path d="M 854.674284 194.333281 
L 860.918188 194.333281 
L 860.918188 153.397414 
L 854.674284 153.397414 
z
" clip-path="url(#p7004436557)" style="fill: #4c72b0"/>
   </g>
   <g id="patch_107">
    <path d="M 862.479164 194.333281 
L 868.723068 194.333281 
L 868.723068 193.244659 
L 862.479164 193.244659 
z
" clip-path="url(#p7004436557)" style="fill: #4c72b0"/>
   </g>
   <g id="patch_108">
    <path d="M 870.284044 194.333281 
L 876.527948 194.333281 
L 876.527948 191.913183 
L 870.284044 191.913183 
z
" clip-path="url(#p7004436557)" style="fill: #4c72b0"/>
   </g>
   <g id="patch_109">
    <path d="M 878.088924 194.333281 
L 884.332828 194.333281 
L 884.332828 193.433202 
L 878.088924 193.433202 
z
" clip-path="url(#p7004436557)" style="fill: #4c72b0"/>
   </g>
   <g id="patch_110">
    <path d="M 885.893804 194.333281 
L 892.137708 194.333281 
L 892.137708 193.437644 
L 885.893804 193.437644 
z
" clip-path="url(#p7004436557)" style="fill: #4c72b0"/>
   </g>
   <g id="patch_111">
    <path d="M 893.698684 194.333281 
L 899.942588 194.333281 
L 899.942588 193.462209 
L 893.698684 193.462209 
z
" clip-path="url(#p7004436557)" style="fill: #4c72b0"/>
   </g>
   <g id="patch_112">
    <path d="M 901.503564 194.333281 
L 907.747468 194.333281 
L 907.747468 193.516622 
L 901.503564 193.516622 
z
" clip-path="url(#p7004436557)" style="fill: #4c72b0"/>
   </g>
   <g id="patch_113">
    <path d="M 909.308444 194.333281 
L 915.552348 194.333281 
L 915.552348 193.401179 
L 909.308444 193.401179 
z
" clip-path="url(#p7004436557)" style="fill: #4c72b0"/>
   </g>
   <g id="patch_114">
    <path d="M 917.113324 194.333281 
L 923.357228 194.333281 
L 923.357228 193.438882 
L 917.113324 193.438882 
z
" clip-path="url(#p7004436557)" style="fill: #4c72b0"/>
   </g>
   <g id="patch_115">
    <path d="M 924.918204 194.333281 
L 931.162108 194.333281 
L 931.162108 193.513209 
L 924.918204 193.513209 
z
" clip-path="url(#p7004436557)" style="fill: #4c72b0"/>
   </g>
   <g id="patch_116">
    <path d="M 932.723084 194.333281 
L 938.966988 194.333281 
L 938.966988 193.402289 
L 932.723084 193.402289 
z
" clip-path="url(#p7004436557)" style="fill: #4c72b0"/>
   </g>
   <g id="line2d_14">
    <path d="M 241.210714 194.333281 
L 241.210714 7.2 
" clip-path="url(#p7004436557)" style="fill: none; stroke: #c44e52; stroke-width: 1.3; stroke-linecap: square"/>
   </g>
   <g id="line2d_15">
    <path d="M 405.113195 194.333281 
L 405.113195 7.2 
" clip-path="url(#p7004436557)" style="fill: none; stroke: #c44e52; stroke-width: 1.3; stroke-linecap: square"/>
   </g>
   <g id="line2d_16">
    <path d="M 459.747355 194.333281 
L 459.747355 7.2 
" clip-path="url(#p7004436557)" style="fill: none; stroke: #c44e52; stroke-width: 1.3; stroke-linecap: square"/>
   </g>
   <g id="patch_117">
    <path d="M 53.893594 194.333281 
L 53.893594 7.2 
" style="fill: none; stroke: #cccccc; stroke-width: 0.8; stroke-linejoin: miter; stroke-linecap: square"/>
   </g>
   <g id="patch_118">
    <path d="M 490.966875 194.333281 
L 490.966875 7.2 
" style="fill: none; stroke: #cccccc; stroke-width: 0.8; stroke-linejoin: miter; stroke-linecap: square"/>
   </g>
   <g id="patch_119">
    <path d="M 53.893594 194.333281 
L 490.966875 194.333281 
" style="fill: none; stroke: #cccccc; stroke-width: 0.8; stroke-linejoin: miter; stroke-linecap: square"/>
   </g>
   <g id="patch_120">
    <path d="M 53.893594 7.2 
L 490.966875 7.2 
" style="fill: none; stroke: #cccccc; stroke-width: 0.8; stroke-linejoin: miter; stroke-linecap: square"/>
   </g>
  </g>
 </g>
 <defs>
  <clipPath id="p7004436557">
   <rect x="53.893594" y="7.2" width="437.073281" height="187.133281"/>
  </clipPath>
 </defs>
</svg>
