<?xml version="1.0" encoding="utf-8" standalone="no"?>
<!DOCTYPE svg PUBLIC "-//W3C//DTD SVG 1.1//EN"
  "http://www.w3.org/Graphics/SVG/1.1/DTD/svg11.dtd">
<svg xmlns:xlink="http://www.w3.org/1999/xlink" width="560.16pt" height="344.16pt" viewBox="0 0 560.16 344.16" xmlns="http://www.w3.org/2000/svg" version="1.1">
 <metadata>
  <rdf:RDF xmlns:dc="http://purl.org/dc/elements/1.1/" xmlns:cc="http://creativecommons.org/ns#" xmlns:rdf="http://www.w3.org/1999/02/22-rdf-syntax-ns#">
   <cc:Work>
    <dc:type rdf:resource="http://purl.org/dc/dcmitype/StillImage"/>
    <dc:date>2026-04-23T20:10:37.785638</dc:date>
    <dc:format>image/svg+xml</dc:format>
    <dc:creator>
     <cc:Agent>
      <dc:title>Matplotlib v3.10.8, https://matplotlib.org/</dc:title>
     </cc:Agent>
    </dc:creator>
   </cc:Work>
  </rdf:RDF>
 </metadata>
 <defs>
  <style type="text/css">*{stroke-linejoin: round; stroke-linecap: butt}</style>
 </defs>
 <g id="figure_1">
  <g id="patch_1">
   <path d="M 0 344.16 
L 560.16 344.16 
L 560.16 0 
L 0 0 
z
" style="fill: #ffffff"/>
  </g>
  <g id="axes_1">
   <g id="patch_2">
    <path d="M 54.064219 140.164766 
L 536.281875 140.164766 
L 536.281875 7.2 
L 54.064219 7.2 
z
" style="fill: #ffffff"/>
   </g>
   <g id="matplotlib.axis_1">
    <g id="xtick_1">
     <g id="line2d_1">
      <defs>
       <path id="m8588b703ed" d="M 0 0 
L 0 -4 
" style="stroke: #555555; stroke-width: 0.8"/>
      </defs>
      <g>
       <use xlink:href="#m8588b703ed" x="75.983203" y="140.164766" style="fill: #555555; stroke: #555555; stroke-width: 0.8"/>
      </g>
     </g>
     <g id="text_1">
      <!-- 0 -->
      <g style="fill: #333333" transform="translate(72.647578 152.233516) scale(0.12 -0.12)">
       <defs>
        <path id="HelveticaNeue-30" d="M 845 2234 
Q 845 2400 848 2601 
Q 851 2803 880 3004 
Q 909 3206 963 3398 
Q 1018 3590 1123 3734 
Q 1229 3878 1389 3968 
Q 1549 4058 1779 4058 
Q 2010 4058 2170 3968 
Q 2330 3878 2435 3734 
Q 2541 3590 2595 3398 
Q 2650 3206 2678 3004 
Q 2707 2803 2710 2601 
Q 2714 2400 2714 2234 
Q 2714 1978 2698 1661 
Q 2682 1344 2595 1065 
Q 2509 787 2317 595 
Q 2125 403 1779 403 
Q 1434 403 1242 595 
Q 1050 787 963 1065 
Q 877 1344 861 1661 
Q 845 1978 845 2234 
z
M 269 2227 
Q 269 1978 281 1709 
Q 294 1440 345 1184 
Q 397 928 493 701 
Q 589 474 755 301 
Q 922 128 1174 29 
Q 1427 -70 1779 -70 
Q 2138 -70 2387 29 
Q 2637 128 2803 301 
Q 2970 474 3066 701 
Q 3162 928 3213 1184 
Q 3264 1440 3277 1709 
Q 3290 1978 3290 2227 
Q 3290 2477 3277 2745 
Q 3264 3014 3213 3270 
Q 3162 3526 3066 3756 
Q 2970 3987 2803 4160 
Q 2637 4333 2384 4435 
Q 2131 4538 1779 4538 
Q 1427 4538 1174 4435 
Q 922 4333 755 4160 
Q 589 3987 493 3756 
Q 397 3526 345 3270 
Q 294 3014 281 2745 
Q 269 2477 269 2227 
z
" transform="scale(0.015625)"/>
       </defs>
       <use xlink:href="#HelveticaNeue-30"/>
      </g>
     </g>
    </g>
    <g id="xtick_2">
     <g id="line2d_2">
      <g>
       <use xlink:href="#m8588b703ed" x="149.047702" y="140.164766" style="fill: #555555; stroke: #555555; stroke-width: 0.8"/>
      </g>
     </g>
     <g id="text_2">
      <!-- 10000 -->
      <g style="fill: #333333" transform="translate(132.369577 152.233516) scale(0.12 -0.12)">
       <defs>
        <path id="HelveticaNeue-31" d="M 2278 0 
L 2278 4538 
L 1862 4538 
Q 1818 4282 1696 4115 
Q 1574 3949 1398 3853 
Q 1222 3757 1004 3721 
Q 787 3686 557 3686 
L 557 3251 
L 1734 3251 
L 1734 0 
L 2278 0 
z
" transform="scale(0.015625)"/>
       </defs>
       <use xlink:href="#HelveticaNeue-31"/>
       <use xlink:href="#HelveticaNeue-30" transform="translate(55.599991 0)"/>
       <use xlink:href="#HelveticaNeue-30" transform="translate(111.199982 0)"/>
       <use xlink:href="#HelveticaNeue-30" transform="translate(166.799973 0)"/>
       <use xlink:href="#HelveticaNeue-30" transform="translate(222.399963 0)"/>
      </g>
     </g>
    </g>
    <g id="xtick_3">
     <g id="line2d_3">
      <g>
       <use xlink:href="#m8588b703ed" x="222.112201" y="140.164766" style="fill: #555555; stroke: #555555; stroke-width: 0.8"/>
      </g>
     </g>
     <g id="text_3">
      <!-- 20000 -->
      <g style="fill: #333333" transform="translate(205.434076 152.233516) scale(0.12 -0.12)">
       <defs>
        <path id="HelveticaNeue-32" d="M 282 2931 
L 826 2931 
Q 819 3136 867 3337 
Q 915 3539 1024 3699 
Q 1133 3859 1302 3958 
Q 1472 4058 1709 4058 
Q 1888 4058 2048 4000 
Q 2208 3942 2326 3833 
Q 2445 3725 2515 3574 
Q 2586 3424 2586 3238 
Q 2586 3002 2512 2822 
Q 2438 2643 2294 2489 
Q 2150 2336 1932 2185 
Q 1715 2035 1427 1856 
Q 1190 1715 972 1555 
Q 755 1395 582 1184 
Q 410 973 298 688 
Q 186 403 154 0 
L 3117 0 
L 3117 480 
L 787 480 
Q 826 691 950 854 
Q 1075 1018 1251 1158 
Q 1427 1299 1638 1424 
Q 1850 1549 2061 1677 
Q 2272 1811 2470 1958 
Q 2669 2106 2822 2288 
Q 2976 2470 3069 2700 
Q 3162 2931 3162 3232 
Q 3162 3552 3050 3795 
Q 2938 4038 2746 4201 
Q 2554 4365 2294 4451 
Q 2035 4538 1741 4538 
Q 1382 4538 1100 4416 
Q 819 4294 630 4080 
Q 442 3866 352 3571 
Q 262 3277 282 2931 
z
" transform="scale(0.015625)"/>
       </defs>
       <use xlink:href="#HelveticaNeue-32"/>
       <use xlink:href="#HelveticaNeue-30" transform="translate(55.599991 0)"/>
       <use xlink:href="#HelveticaNeue-30" transform="translate(111.199982 0)"/>
       <use xlink:href="#HelveticaNeue-30" transform="translate(166.799973 0)"/>
       <use xlink:href="#HelveticaNeue-30" transform="translate(222.399963 0)"/>
      </g>
     </g>
    </g>
    <g id="xtick_4">
     <g id="line2d_4">
      <g>
       <use xlink:href="#m8588b703ed" x="295.1767" y="140.164766" style="fill: #555555; stroke: #555555; stroke-width: 0.8"/>
      </g>
     </g>
     <g id="text_4">
      <!-- 30000 -->
      <g style="fill: #333333" transform="translate(278.498575 152.233516) scale(0.12 -0.12)">
       <defs>
        <path id="HelveticaNeue-33" d="M 1395 2592 
L 1395 2131 
Q 1549 2150 1722 2150 
Q 1926 2150 2102 2096 
Q 2278 2042 2406 1930 
Q 2534 1818 2611 1654 
Q 2688 1491 2688 1280 
Q 2688 1075 2608 912 
Q 2528 749 2393 637 
Q 2259 525 2080 464 
Q 1901 403 1702 403 
Q 1235 403 992 681 
Q 749 960 736 1402 
L 192 1402 
Q 186 1050 291 774 
Q 397 499 595 310 
Q 794 122 1075 26 
Q 1357 -70 1702 -70 
Q 2022 -70 2307 16 
Q 2592 102 2803 275 
Q 3014 448 3139 707 
Q 3264 966 3264 1306 
Q 3264 1715 3062 2016 
Q 2861 2317 2445 2406 
L 2445 2419 
Q 2714 2541 2893 2777 
Q 3072 3014 3072 3322 
Q 3072 3635 2966 3865 
Q 2861 4096 2675 4243 
Q 2490 4390 2237 4464 
Q 1984 4538 1690 4538 
Q 1350 4538 1091 4429 
Q 832 4320 659 4128 
Q 486 3936 393 3667 
Q 301 3398 288 3072 
L 832 3072 
Q 832 3270 883 3449 
Q 934 3629 1040 3763 
Q 1146 3898 1309 3978 
Q 1472 4058 1690 4058 
Q 2035 4058 2265 3875 
Q 2496 3693 2496 3328 
Q 2496 3149 2425 3008 
Q 2355 2867 2236 2774 
Q 2118 2682 1961 2634 
Q 1805 2586 1632 2586 
L 1517 2586 
Q 1485 2586 1453 2586 
Q 1427 2586 1395 2592 
z
" transform="scale(0.015625)"/>
       </defs>
       <use xlink:href="#HelveticaNeue-33"/>
       <use xlink:href="#HelveticaNeue-30" transform="translate(55.599991 0)"/>
       <use xlink:href="#HelveticaNeue-30" transform="translate(111.199982 0)"/>
       <use xlink:href="#HelveticaNeue-30" transform="translate(166.799973 0)"/>
       <use xlink:href="#HelveticaNeue-30" transform="translate(222.399963 0)"/>
      </g>
     </g>
    </g>
    <g id="xtick_5">
     <g id="line2d_5">
      <g>
       <use xlink:href="#m8588b703ed" x="368.241199" y="140.164766" style="fill: #555555; stroke: #555555; stroke-width: 0.8"/>
      </g>
     </g>
     <g id="text_5">
      <!-- 40000 -->
      <g style="fill: #333333" transform="translate(351.563074 152.233516) scale(0.12 -0.12)">
       <defs>
        <path id="HelveticaNeue-34" d="M 2170 1542 
L 646 1542 
L 2157 3763 
L 2170 3763 
L 2170 1542 
z
M 2682 1542 
L 2682 4538 
L 2246 4538 
L 179 1587 
L 179 1062 
L 2170 1062 
L 2170 0 
L 2682 0 
L 2682 1062 
L 3296 1062 
L 3296 1542 
L 2682 1542 
z
" transform="scale(0.015625)"/>
       </defs>
       <use xlink:href="#HelveticaNeue-34"/>
       <use xlink:href="#HelveticaNeue-30" transform="translate(55.599991 0)"/>
       <use xlink:href="#HelveticaNeue-30" transform="translate(111.199982 0)"/>
       <use xlink:href="#HelveticaNeue-30" transform="translate(166.799973 0)"/>
       <use xlink:href="#HelveticaNeue-30" transform="translate(222.399963 0)"/>
      </g>
     </g>
    </g>
    <g id="xtick_6">
     <g id="line2d_6">
      <g>
       <use xlink:href="#m8588b703ed" x="441.305698" y="140.164766" style="fill: #555555; stroke: #555555; stroke-width: 0.8"/>
      </g>
     </g>
     <g id="text_6">
      <!-- 50000 -->
      <g style="fill: #333333" transform="translate(424.627573 152.233516) scale(0.12 -0.12)">
       <defs>
        <path id="HelveticaNeue-35" d="M 3008 3981 
L 3008 4461 
L 768 4461 
L 346 2106 
L 813 2080 
Q 973 2272 1181 2390 
Q 1389 2509 1658 2509 
Q 1888 2509 2077 2432 
Q 2266 2355 2400 2217 
Q 2534 2080 2608 1891 
Q 2682 1702 2682 1478 
Q 2682 1210 2605 1008 
Q 2528 806 2397 672 
Q 2266 538 2090 470 
Q 1914 403 1722 403 
Q 1517 403 1347 464 
Q 1178 525 1053 637 
Q 928 749 854 899 
Q 781 1050 768 1222 
L 224 1222 
Q 230 915 345 672 
Q 461 429 659 265 
Q 858 102 1117 16 
Q 1376 -70 1670 -70 
Q 2067 -70 2364 54 
Q 2662 179 2860 390 
Q 3059 602 3158 874 
Q 3258 1146 3258 1434 
Q 3258 1824 3142 2115 
Q 3027 2406 2828 2601 
Q 2630 2797 2361 2893 
Q 2093 2989 1792 2989 
Q 1562 2989 1328 2909 
Q 1094 2829 947 2662 
L 934 2675 
L 1178 3981 
L 3008 3981 
z
" transform="scale(0.015625)"/>
       </defs>
       <use xlink:href="#HelveticaNeue-35"/>
       <use xlink:href="#HelveticaNeue-30" transform="translate(55.599991 0)"/>
       <use xlink:href="#HelveticaNeue-30" transform="translate(111.199982 0)"/>
       <use xlink:href="#HelveticaNeue-30" transform="translate(166.799973 0)"/>
       <use xlink:href="#HelveticaNeue-30" transform="translate(222.399963 0)"/>
      </g>
     </g>
    </g>
    <g id="xtick_7">
     <g id="line2d_7">
      <g>
       <use xlink:href="#m8588b703ed" x="514.370197" y="140.164766" style="fill: #555555; stroke: #555555; stroke-width: 0.8"/>
      </g>
     </g>
     <g id="text_7">
      <!-- 60000 -->
      <g style="fill: #333333" transform="translate(497.692072 152.233516) scale(0.12 -0.12)">
       <defs>
        <path id="HelveticaNeue-36" d="M 2650 3379 
L 3194 3379 
Q 3142 3942 2809 4240 
Q 2477 4538 1914 4538 
Q 1427 4538 1107 4333 
Q 787 4128 595 3789 
Q 403 3450 323 3011 
Q 243 2573 243 2106 
Q 243 1747 297 1363 
Q 352 979 518 659 
Q 685 339 992 134 
Q 1299 -70 1805 -70 
Q 2234 -70 2525 74 
Q 2816 218 2992 438 
Q 3168 659 3245 928 
Q 3322 1197 3322 1446 
Q 3322 1760 3226 2029 
Q 3130 2298 2954 2496 
Q 2778 2694 2518 2806 
Q 2259 2918 1933 2918 
Q 1562 2918 1277 2777 
Q 992 2637 800 2323 
L 787 2336 
Q 794 2598 838 2899 
Q 883 3200 1001 3459 
Q 1120 3718 1331 3888 
Q 1542 4058 1888 4058 
Q 2214 4058 2412 3872 
Q 2611 3686 2650 3379 
z
M 1830 2438 
Q 2061 2438 2233 2355 
Q 2406 2272 2521 2134 
Q 2637 1997 2691 1808 
Q 2746 1619 2746 1408 
Q 2746 1210 2685 1027 
Q 2624 845 2509 704 
Q 2394 563 2224 483 
Q 2054 403 1830 403 
Q 1606 403 1430 483 
Q 1254 563 1136 697 
Q 1018 832 954 1017 
Q 890 1203 890 1414 
Q 890 1626 950 1814 
Q 1011 2003 1132 2140 
Q 1254 2278 1427 2358 
Q 1600 2438 1830 2438 
z
" transform="scale(0.015625)"/>
       </defs>
       <use xlink:href="#HelveticaNeue-36"/>
       <use xlink:href="#HelveticaNeue-30" transform="translate(55.599991 0)"/>
       <use xlink:href="#HelveticaNeue-30" transform="translate(111.199982 0)"/>
       <use xlink:href="#HelveticaNeue-30" transform="translate(166.799973 0)"/>
       <use xlink:href="#HelveticaNeue-30" transform="translate(222.399963 0)"/>
      </g>
     </g>
    </g>
   </g>
   <g id="matplotlib.axis_2">
    <g id="ytick_1">
     <g id="line2d_8">
      <defs>
       <path id="m6f4f2eb225" d="M 0 0 
L 4 0 
" style="stroke: #555555; stroke-width: 0.8"/>
      </defs>
      <g>
       <use xlink:href="#m6f4f2eb225" x="54.064219" y="123.130846" style="fill: #555555; stroke: #555555; stroke-width: 0.8"/>
      </g>
     </g>
     <g id="text_8">
      <!-- $\mathdefault{10^{-6}}$ -->
      <g style="fill: #333333" transform="translate(27.044219 127.415221) scale(0.12 -0.12)">
       <defs>
        <path id="HelveticaNeue-2212" d="M 307 1837 
L 307 1402 
L 3533 1402 
L 3533 1837 
L 307 1837 
z
" transform="scale(0.015625)"/>
       </defs>
       <use xlink:href="#HelveticaNeue-31" transform="translate(0 0.173438)"/>
       <use xlink:href="#HelveticaNeue-30" transform="translate(55.599991 0.173438)"/>
       <use xlink:href="#HelveticaNeue-2212" transform="translate(112.104786 36.365625) scale(0.7)"/>
       <use xlink:href="#HelveticaNeue-36" transform="translate(154.104776 36.365625) scale(0.7)"/>
      </g>
     </g>
    </g>
    <g id="ytick_2">
     <g id="line2d_9">
      <g>
       <use xlink:href="#m6f4f2eb225" x="54.064219" y="94.093822" style="fill: #555555; stroke: #555555; stroke-width: 0.8"/>
      </g>
     </g>
     <g id="text_9">
      <!-- $\mathdefault{10^{-4}}$ -->
      <g style="fill: #333333" transform="translate(27.044219 98.378197) scale(0.12 -0.12)">
       <use xlink:href="#HelveticaNeue-31" transform="translate(0 0.173438)"/>
       <use xlink:href="#HelveticaNeue-30" transform="translate(55.599991 0.173438)"/>
       <use xlink:href="#HelveticaNeue-2212" transform="translate(112.104786 36.365625) scale(0.7)"/>
       <use xlink:href="#HelveticaNeue-34" transform="translate(154.104776 36.365625) scale(0.7)"/>
      </g>
     </g>
    </g>
    <g id="ytick_3">
     <g id="line2d_10">
      <g>
       <use xlink:href="#m6f4f2eb225" x="54.064219" y="65.056798" style="fill: #555555; stroke: #555555; stroke-width: 0.8"/>
      </g>
     </g>
     <g id="text_10">
      <!-- $\mathdefault{10^{-2}}$ -->
      <g style="fill: #333333" transform="translate(27.044219 69.341173) scale(0.12 -0.12)">
       <use xlink:href="#HelveticaNeue-31" transform="translate(0 0.173438)"/>
       <use xlink:href="#HelveticaNeue-30" transform="translate(55.599991 0.173438)"/>
       <use xlink:href="#HelveticaNeue-2212" transform="translate(112.104786 36.365625) scale(0.7)"/>
       <use xlink:href="#HelveticaNeue-32" transform="translate(154.104776 36.365625) scale(0.7)"/>
      </g>
     </g>
    </g>
    <g id="ytick_4">
     <g id="line2d_11">
      <g>
       <use xlink:href="#m6f4f2eb225" x="54.064219" y="36.019774" style="fill: #555555; stroke: #555555; stroke-width: 0.8"/>
      </g>
     </g>
     <g id="text_11">
      <!-- $\mathdefault{10^{0}}$ -->
      <g style="fill: #333333" transform="translate(32.084219 40.304149) scale(0.12 -0.12)">
       <use xlink:href="#HelveticaNeue-31" transform="translate(0 0.173438)"/>
       <use xlink:href="#HelveticaNeue-30" transform="translate(55.599991 0.173438)"/>
       <use xlink:href="#HelveticaNeue-30" transform="translate(112.104786 36.365625) scale(0.7)"/>
      </g>
     </g>
    </g>
    <g id="text_12">
     <!-- CE Loss -->
     <g style="fill: #333333" transform="translate(16.482813 97.998477) rotate(-90) scale(0.13 -0.13)">
      <defs>
       <path id="HelveticaNeue-43" d="M 3712 3194 
L 4320 3194 
Q 4269 3558 4102 3836 
Q 3936 4115 3686 4300 
Q 3437 4486 3117 4582 
Q 2797 4678 2438 4678 
Q 1914 4678 1507 4489 
Q 1101 4301 829 3974 
Q 557 3648 416 3209 
Q 275 2771 275 2272 
Q 275 1773 406 1337 
Q 538 902 800 582 
Q 1062 262 1459 80 
Q 1856 -102 2387 -102 
Q 3264 -102 3769 378 
Q 4275 858 4365 1722 
L 3757 1722 
Q 3738 1440 3642 1197 
Q 3546 954 3376 778 
Q 3206 602 2972 502 
Q 2739 403 2438 403 
Q 2029 403 1734 556 
Q 1440 710 1251 969 
Q 1062 1229 972 1577 
Q 883 1926 883 2317 
Q 883 2675 972 3008 
Q 1062 3341 1251 3600 
Q 1440 3859 1731 4012 
Q 2022 4166 2432 4166 
Q 2912 4166 3261 3923 
Q 3610 3680 3712 3194 
z
" transform="scale(0.015625)"/>
       <path id="HelveticaNeue-45" d="M 499 4570 
L 499 0 
L 3674 0 
L 3674 512 
L 1107 512 
L 1107 2093 
L 3482 2093 
L 3482 2605 
L 1107 2605 
L 1107 4058 
L 3654 4058 
L 3654 4570 
L 499 4570 
z
" transform="scale(0.015625)"/>
       <path id="HelveticaNeue-20" transform="scale(0.015625)"/>
       <path id="HelveticaNeue-4c" d="M 499 4570 
L 499 0 
L 3526 0 
L 3526 512 
L 1107 512 
L 1107 4570 
L 499 4570 
z
" transform="scale(0.015625)"/>
       <path id="HelveticaNeue-6f" d="M 806 1651 
Q 806 1952 886 2185 
Q 966 2419 1107 2579 
Q 1248 2739 1437 2822 
Q 1626 2906 1837 2906 
Q 2048 2906 2237 2822 
Q 2426 2739 2566 2579 
Q 2707 2419 2787 2185 
Q 2867 1952 2867 1651 
Q 2867 1350 2787 1116 
Q 2707 883 2566 726 
Q 2426 570 2237 486 
Q 2048 403 1837 403 
Q 1626 403 1437 486 
Q 1248 570 1107 726 
Q 966 883 886 1116 
Q 806 1350 806 1651 
z
M 230 1651 
Q 230 1286 332 972 
Q 435 659 640 425 
Q 845 192 1145 61 
Q 1446 -70 1837 -70 
Q 2234 -70 2531 61 
Q 2829 192 3033 425 
Q 3238 659 3340 972 
Q 3443 1286 3443 1651 
Q 3443 2016 3340 2333 
Q 3238 2650 3033 2883 
Q 2829 3117 2531 3251 
Q 2234 3386 1837 3386 
Q 1446 3386 1145 3251 
Q 845 3117 640 2883 
Q 435 2650 332 2333 
Q 230 2016 230 1651 
z
" transform="scale(0.015625)"/>
       <path id="HelveticaNeue-73" d="M 742 1043 
L 198 1043 
Q 211 736 326 521 
Q 442 307 634 176 
Q 826 45 1075 -12 
Q 1325 -70 1600 -70 
Q 1850 -70 2102 -22 
Q 2355 26 2556 147 
Q 2758 269 2883 467 
Q 3008 666 3008 966 
Q 3008 1203 2915 1363 
Q 2822 1523 2672 1628 
Q 2522 1734 2326 1798 
Q 2131 1862 1926 1907 
Q 1734 1952 1542 1993 
Q 1350 2035 1196 2096 
Q 1043 2157 944 2249 
Q 845 2342 845 2483 
Q 845 2611 909 2691 
Q 973 2771 1075 2819 
Q 1178 2867 1302 2886 
Q 1427 2906 1549 2906 
Q 1683 2906 1814 2877 
Q 1946 2848 2054 2784 
Q 2163 2720 2233 2614 
Q 2304 2509 2317 2349 
L 2861 2349 
Q 2842 2650 2733 2851 
Q 2624 3053 2441 3171 
Q 2259 3290 2022 3338 
Q 1786 3386 1504 3386 
Q 1286 3386 1065 3331 
Q 845 3277 669 3165 
Q 493 3053 381 2873 
Q 269 2694 269 2445 
Q 269 2125 429 1945 
Q 589 1766 829 1667 
Q 1069 1568 1350 1513 
Q 1632 1459 1872 1392 
Q 2112 1325 2272 1216 
Q 2432 1107 2432 896 
Q 2432 742 2355 643 
Q 2278 544 2160 493 
Q 2042 442 1901 422 
Q 1760 403 1632 403 
Q 1466 403 1309 435 
Q 1152 467 1027 540 
Q 902 614 825 739 
Q 749 864 742 1043 
z
" transform="scale(0.015625)"/>
      </defs>
      <use xlink:href="#HelveticaNeue-43"/>
      <use xlink:href="#HelveticaNeue-45" transform="translate(72.199982 0)"/>
      <use xlink:href="#HelveticaNeue-20" transform="translate(133.299973 0)"/>
      <use xlink:href="#HelveticaNeue-4c" transform="translate(161.09996 0)"/>
      <use xlink:href="#HelveticaNeue-6f" transform="translate(216.699951 0)"/>
      <use xlink:href="#HelveticaNeue-73" transform="translate(274.099945 0)"/>
      <use xlink:href="#HelveticaNeue-73" transform="translate(324.09993 0)"/>
     </g>
    </g>
   </g>
   <g id="line2d_12">
    <path d="M 75.983203 25.749262 
L 76.005122 26.157982 
L 76.100106 26.146715 
L 76.224316 25.943549 
L 76.428897 24.992187 
L 76.764993 22.182231 
L 77.239913 18.037004 
L 77.466412 17.674452 
L 77.75867 17.620673 
L 79.731412 17.876974 
L 80.878525 18.087923 
L 83.253121 18.350104 
L 85.963814 18.322094 
L 88.901007 18.147983 
L 91.078329 18.00633 
L 94.680408 17.760329 
L 97.712585 17.559673 
L 115.986016 16.688791 
L 121.436628 16.501432 
L 126.565756 16.329835 
L 164.442392 15.312536 
L 168.687439 15.227733 
L 178.573066 15.042862 
L 223.434669 14.610402 
L 223.463894 13.243853 
L 223.522346 15.543631 
L 223.712314 17.626603 
L 224.618313 20.486145 
L 225.049394 21.04348 
L 225.495087 21.256761 
L 226.057684 21.270942 
L 227.190184 21.057327 
L 229.535554 20.324198 
L 233.773295 18.767893 
L 234.964246 18.465051 
L 235.577988 18.360176 
L 236.19173 18.28481 
L 239.815729 18.188612 
L 241.423148 18.24873 
L 242.935583 18.301526 
L 248.057405 18.53795 
L 252.382823 18.745838 
L 256.262548 18.978449 
L 258.491015 19.145491 
L 264.467691 19.799869 
L 267.63869 20.317545 
L 271.46727 21.189202 
L 273.951463 21.982686 
L 275.529656 22.624384 
L 278.09422 24.034237 
L 279.248639 24.926843 
L 280.183865 25.915314 
L 280.958349 27.084404 
L 281.725526 28.712608 
L 282.441558 30.759656 
L 283.142977 33.428695 
L 284.297396 38.919976 
L 286.08017 48.446928 
L 288.272105 62.251149 
L 291.260443 81.728087 
L 292.414862 87.742646 
L 293.372007 91.629729 
L 294.175716 93.743757 
L 295.030571 95.321239 
L 295.841587 96.431087 
L 297.09099 97.582854 
L 298.311167 98.25206 
L 301.679441 99.879017 
L 312.726793 104.284532 
L 315.042937 105.041201 
L 321.282646 107.138205 
L 325.703048 108.631188 
L 327.960741 109.366325 
L 329.77274 110.026938 
L 330.912547 110.406882 
L 333.067949 111.23219 
L 335.281804 112.114108 
L 337.020739 112.802577 
L 344.093382 115.388387 
L 345.481608 115.88241 
L 352.883041 118.166694 
L 355.243025 118.748372 
L 356.046734 118.925373 
L 356.273234 118.988163 
L 356.886976 119.134592 
L 357.478798 119.198001 
L 357.873347 119.282557 
L 358.348266 119.357896 
L 362.527555 119.828202 
L 362.724829 119.836576 
L 364.193426 119.836178 
L 364.661039 119.755768 
L 364.814474 119.657345 
L 365.691248 119.224916 
L 366.173474 118.429988 
L 366.195393 118.235179 
L 366.2027 118.317052 
L 366.224619 110.463889 
L 366.261151 34.730404 
L 366.348829 58.287827 
L 366.480345 68.475292 
L 366.684925 78.94427 
L 366.73607 79.231042 
L 366.794522 78.992816 
L 366.999103 76.676984 
L 367.627457 69.781006 
L 367.86857 69.012553 
L 367.963554 69.104211 
L 368.138909 69.734875 
L 369.519828 75.946245 
L 370.162795 77.22907 
L 371.331827 78.896637 
L 372.208601 79.686422 
L 372.734666 79.935069 
L 373.399553 79.927037 
L 374.100972 79.888011 
L 374.897375 79.867845 
L 375.511117 79.867692 
L 378.623664 79.725507 
L 380.1361 80.302335 
L 380.830212 80.709341 
L 382.072309 81.69563 
L 382.408405 82.031451 
L 384.512663 84.287518 
L 385.206776 85.102565 
L 387.479082 87.271837 
L 387.924775 87.637497 
L 388.509291 88.187376 
L 389.174178 88.648383 
L 389.671017 89.001818 
L 390.145936 89.190866 
L 390.489339 89.366907 
L 393.901451 91.185744 
L 394.295999 91.302109 
L 395.099709 91.583318 
L 396.692515 92.035963 
L 398.08074 92.305319 
L 399.878127 92.568994 
L 400.46995 92.647305 
L 401.156756 92.71873 
L 401.770498 92.852054 
L 403.173336 93.253919 
L 409.413044 95.499585 
L 409.953722 95.563762 
L 410.728205 95.865642 
L 416.346865 98.450996 
L 417.377075 98.833581 
L 418.195397 99.153274 
L 419.810122 99.685654 
L 420.255816 99.871189 
L 421.13259 100.140296 
L 423.784831 100.72989 
L 424.186686 100.76886 
L 424.566621 100.826305 
L 425.202283 100.919106 
L 426.970443 101.00887 
L 427.467282 101.027736 
L 427.796072 101.034896 
L 428.21254 101.014514 
L 428.482879 100.965584 
L 430.740572 100.337298 
L 431.127813 100.215247 
L 431.456604 100.153924 
L 431.931523 99.985137 
L 433.400119 99.476428 
L 433.787361 99.378554 
L 434.459555 99.108821 
L 434.846796 98.977345 
L 435.29249 98.8022 
L 435.62128 98.776289 
L 437.279844 98.434643 
L 437.499038 98.386519 
L 438.19315 98.391519 
L 439.077231 98.382402 
L 439.501005 98.385768 
L 439.815182 98.392015 
L 440.209731 98.390562 
L 440.728489 98.468979 
L 441.539504 98.675301 
L 442.47473 99.068289 
L 442.818133 99.237932 
L 443.066553 99.378574 
L 444.900471 100.623466 
L 445.382697 101.023825 
L 447.552713 102.985551 
L 448.108003 103.559893 
L 448.400261 103.968916 
L 448.692519 104.37677 
L 450.124583 106.189498 
L 450.387615 106.545938 
L 453.025244 110.404837 
L 453.38326 111.06249 
L 453.916631 111.834819 
L 455.261017 113.880379 
L 458.366259 116.996059 
L 459.725258 117.758121 
L 461.003887 118.308123 
L 462.384806 118.764811 
L 464.715564 119.480349 
L 465.709241 119.766102 
L 471.897804 120.990223 
L 472.694207 121.119257 
L 473.074142 121.181413 
L 473.315255 121.208383 
L 473.8194 121.286604 
L 475.28069 121.327828 
L 475.492577 121.331686 
L 476.61777 121.258217 
L 477.005012 121.267232 
L 478.020609 120.642536 
L 478.276335 120.066225 
L 478.290947 120.092636 
L 478.334786 119.974216 
L 478.356706 119.984757 
L 478.495528 119.673894 
L 478.502835 119.673392 
L 478.510141 117.623576 
L 478.539367 29.405926 
L 478.627044 51.752249 
L 478.817012 67.970512 
L 479.00698 71.165013 
L 479.050818 71.24524 
L 479.10927 71.136629 
L 479.321157 70.085327 
L 480.336753 65.105397 
L 480.46827 65.244128 
L 480.687463 65.896364 
L 481.038173 67.778423 
L 482.48485 76.2913 
L 483.281253 79.323262 
L 483.887688 80.867388 
L 484.508736 81.904008 
L 485.378204 82.861305 
L 486.547236 83.625345 
L 487.577445 84.06606 
L 489.937429 84.763617 
L 494.116718 85.995057 
L 500.195684 88.336343 
L 503.651635 89.770029 
L 511.104214 93.156581 
L 512.748165 93.842098 
L 514.362891 94.478175 
L 514.362891 94.478175 
" clip-path="url(#p95885aa9df)" style="fill: none; stroke: #4c72b0; stroke-opacity: 0.7; stroke-width: 1.3; stroke-linecap: square"/>
   </g>
   <g id="line2d_13">
    <path d="M 75.983203 25.740298 
L 76.048961 26.164475 
L 76.100106 26.147851 
L 76.238929 25.970232 
L 76.443509 25.119818 
L 76.764993 22.65831 
L 77.261832 18.124009 
L 77.495638 17.629049 
L 77.817122 17.58348 
L 78.277428 17.640255 
L 79.906767 17.864983 
L 83.713427 18.268214 
L 86.453346 18.214524 
L 87.753894 18.157395 
L 89.368619 18.070084 
L 94.132425 17.782449 
L 95.411053 17.703658 
L 103.258181 17.268098 
L 110.878808 16.939795 
L 112.720033 16.868485 
L 115.759516 16.756792 
L 148.258606 15.778855 
L 151.977589 15.677707 
L 162.433118 15.40129 
L 168.928552 15.248022 
L 171.003584 15.205988 
L 178.390405 15.076648 
L 180.743082 15.040584 
L 192.95216 14.885886 
L 195.107562 14.865035 
L 196.722288 14.852384 
L 203.948367 14.809367 
L 211.232897 14.791105 
L 213.534429 14.795178 
L 215.324509 14.800256 
L 218.035202 14.807681 
L 223.873056 14.842666 
L 225.597378 14.855469 
L 227.438603 14.86894 
L 237.492278 14.970928 
L 239.143536 14.990665 
L 240.144519 15.0043 
L 240.940922 15.014252 
L 242.000358 15.027134 
L 247.085647 15.100148 
L 250.782711 15.153151 
L 251.447597 15.161065 
L 252.207468 15.172534 
L 253.449565 15.191494 
L 254.457855 15.206808 
L 256.028742 15.230414 
L 257.022419 15.244298 
L 258.33758 15.260622 
L 259.265499 15.274013 
L 261.632789 15.303004 
L 262.107708 15.306704 
L 262.582627 15.313967 
L 263.722433 15.327298 
L 264.241191 15.334884 
L 265.446755 15.347353 
L 271.36498 15.420152 
L 272.037173 15.428714 
L 272.614383 15.436988 
L 273.271963 15.446996 
L 274.762479 15.467497 
L 275.19356 15.474562 
L 276.063027 15.485817 
L 276.581785 15.494495 
L 277.341656 15.503435 
L 278.11614 15.514574 
L 280.176558 15.541509 
L 280.863365 15.55245 
L 290.003734 15.662543 
L 290.493266 15.665893 
L 290.902427 15.671914 
L 295.118249 15.719532 
L 296.367651 15.733175 
L 300.174312 15.774546 
L 301.073005 15.78492 
L 301.891328 15.792052 
L 302.395473 15.798945 
L 303.447601 15.810314 
L 306.026778 15.84025 
L 306.589375 15.845914 
L 311.513922 15.899059 
L 317.98013 15.954818 
L 318.908049 15.963157 
L 319.733678 15.968989 
L 321.852549 15.984367 
L 322.729323 15.990913 
L 323.37229 15.996404 
L 325.41079 16.009965 
L 325.900322 16.014688 
L 327.040128 16.021517 
L 329.44395 16.036312 
L 394.281387 16.304263 
L 394.617483 16.303562 
L 395.238531 16.306805 
L 395.830354 16.307343 
L 399.242466 16.315291 
L 399.753918 16.317721 
L 400.827966 16.319499 
L 401.35403 16.319748 
L 402.36232 16.323299 
L 403.334078 16.324146 
L 404.247384 16.32697 
L 405.61369 16.32989 
L 406.402787 16.333074 
L 407.243029 16.335111 
L 407.973674 16.336789 
L 409.208464 16.340628 
L 413.833446 16.3539 
L 414.973253 16.356209 
L 415.51393 16.357657 
L 417.165188 16.362961 
L 417.764317 16.365275 
L 418.297687 16.366588 
L 436.841457 16.413327 
L 437.594022 16.415018 
L 447.603858 16.437662 
L 448.100696 16.43977 
L 449.467003 16.442015 
L 449.985761 16.444941 
L 451.030583 16.446728 
L 455.114888 16.456478 
L 457.445646 16.460865 
L 458.285888 16.46096 
L 459.703339 16.465149 
L 460.287855 16.465362 
L 469.625498 16.479052 
L 471.90511 16.479714 
L 472.336191 16.481946 
L 476.86619 16.486167 
L 477.479932 16.485656 
L 478.904689 16.488645 
L 479.408834 16.488624 
L 481.666527 16.491406 
L 484.530656 16.496468 
L 485.604704 16.497529 
L 486.145381 16.496905 
L 489.038735 16.499756 
L 490.047025 16.500751 
L 490.748445 16.50159 
L 504.236151 16.507356 
L 505.193296 16.506842 
L 509.314134 16.508124 
L 514.362891 16.510475 
L 514.362891 16.510475 
" clip-path="url(#p95885aa9df)" style="fill: none; stroke: #55a868; stroke-opacity: 0.7; stroke-width: 1.3; stroke-linecap: square"/>
   </g>
   <g id="patch_3">
    <path d="M 54.064219 140.164766 
L 54.064219 7.2 
" style="fill: none; stroke: #cccccc; stroke-width: 0.8; stroke-linejoin: miter; stroke-linecap: square"/>
   </g>
   <g id="patch_4">
    <path d="M 536.281875 140.164766 
L 536.281875 7.2 
" style="fill: none; stroke: #cccccc; stroke-width: 0.8; stroke-linejoin: miter; stroke-linecap: square"/>
   </g>
   <g id="patch_5">
    <path d="M 54.064219 140.164766 
L 536.281875 140.164766 
" style="fill: none; stroke: #cccccc; stroke-width: 0.8; stroke-linejoin: miter; stroke-linecap: square"/>
   </g>
   <g id="patch_6">
    <path d="M 54.064219 7.2 
L 536.281875 7.2 
" style="fill: none; stroke: #cccccc; stroke-width: 0.8; stroke-linejoin: miter; stroke-linecap: square"/>
   </g>
   <g id="legend_1">
    <g id="patch_7">
     <path d="M 61.764219 134.664766 
L 129.479531 134.664766 
Q 131.679531 134.664766 131.679531 132.464766 
L 131.679531 99.220703 
Q 131.679531 97.020703 129.479531 97.020703 
L 61.764219 97.020703 
Q 59.564219 97.020703 59.564219 99.220703 
L 59.564219 132.464766 
Q 59.564219 134.664766 61.764219 134.664766 
z
" style="fill: #ffffff; opacity: 0.9; stroke: #cccccc; stroke-width: 0.5; stroke-linejoin: miter"/>
    </g>
    <g id="line2d_14">
     <path d="M 66.164219 107.625391 
L 74.414219 107.625391 
L 82.664219 107.625391 
" style="fill: none; stroke: #4c72b0; stroke-opacity: 0.7; stroke-width: 1.3; stroke-linecap: square"/>
    </g>
    <g id="text_13">
     <!-- float32 -->
     <g style="fill: #333333" transform="translate(91.464219 111.475391) scale(0.11 -0.11)">
      <defs>
       <path id="HelveticaNeue-66" d="M 634 2829 
L 634 0 
L 1178 0 
L 1178 2829 
L 1818 2829 
L 1818 3309 
L 1178 3309 
L 1178 3770 
Q 1178 3987 1286 4064 
Q 1395 4141 1594 4141 
Q 1664 4141 1747 4131 
Q 1830 4122 1901 4096 
L 1901 4570 
Q 1824 4595 1725 4608 
Q 1626 4621 1549 4621 
Q 1101 4621 867 4413 
Q 634 4205 634 3802 
L 634 3309 
L 77 3309 
L 77 2829 
L 634 2829 
z
" transform="scale(0.015625)"/>
       <path id="HelveticaNeue-6c" d="M 442 4570 
L 442 0 
L 986 0 
L 986 4570 
L 442 4570 
z
" transform="scale(0.015625)"/>
       <path id="HelveticaNeue-61" d="M 3341 13 
Q 3200 -70 2950 -70 
Q 2739 -70 2614 48 
Q 2490 166 2490 435 
Q 2266 166 1968 48 
Q 1670 -70 1325 -70 
Q 1101 -70 899 -19 
Q 698 32 550 141 
Q 403 250 316 426 
Q 230 602 230 851 
Q 230 1133 326 1312 
Q 422 1491 579 1603 
Q 736 1715 937 1772 
Q 1139 1830 1350 1869 
Q 1574 1914 1776 1936 
Q 1978 1958 2131 2000 
Q 2285 2042 2374 2122 
Q 2464 2202 2464 2355 
Q 2464 2534 2397 2643 
Q 2330 2752 2224 2809 
Q 2118 2867 1987 2886 
Q 1856 2906 1728 2906 
Q 1382 2906 1152 2774 
Q 922 2643 902 2278 
L 358 2278 
Q 371 2586 486 2797 
Q 602 3008 794 3139 
Q 986 3270 1232 3328 
Q 1478 3386 1760 3386 
Q 1984 3386 2205 3354 
Q 2426 3322 2605 3222 
Q 2784 3123 2893 2944 
Q 3002 2765 3002 2477 
L 3002 774 
Q 3002 582 3024 492 
Q 3046 403 3174 403 
Q 3245 403 3341 435 
L 3341 13 
z
M 2458 1709 
Q 2355 1632 2188 1597 
Q 2022 1562 1840 1539 
Q 1658 1517 1472 1488 
Q 1286 1459 1139 1395 
Q 992 1331 899 1212 
Q 806 1094 806 890 
Q 806 755 860 662 
Q 915 570 1001 512 
Q 1088 454 1203 428 
Q 1318 403 1446 403 
Q 1715 403 1907 476 
Q 2099 550 2220 662 
Q 2342 774 2400 905 
Q 2458 1037 2458 1152 
L 2458 1709 
z
" transform="scale(0.015625)"/>
       <path id="HelveticaNeue-74" d="M 1165 3309 
L 1165 4301 
L 621 4301 
L 621 3309 
L 58 3309 
L 58 2829 
L 621 2829 
L 621 723 
Q 621 493 665 352 
Q 710 211 803 134 
Q 896 58 1046 29 
Q 1197 0 1408 0 
L 1824 0 
L 1824 480 
L 1574 480 
Q 1446 480 1366 489 
Q 1286 499 1241 531 
Q 1197 563 1181 620 
Q 1165 678 1165 774 
L 1165 2829 
L 1824 2829 
L 1824 3309 
L 1165 3309 
z
" transform="scale(0.015625)"/>
      </defs>
      <use xlink:href="#HelveticaNeue-66"/>
      <use xlink:href="#HelveticaNeue-6c" transform="translate(29.599991 0)"/>
      <use xlink:href="#HelveticaNeue-6f" transform="translate(51.799988 0)"/>
      <use xlink:href="#HelveticaNeue-61" transform="translate(109.199982 0)"/>
      <use xlink:href="#HelveticaNeue-74" transform="translate(162.899979 0)"/>
      <use xlink:href="#HelveticaNeue-33" transform="translate(194.399963 0)"/>
      <use xlink:href="#HelveticaNeue-32" transform="translate(249.999954 0)"/>
     </g>
    </g>
    <g id="line2d_15">
     <path d="M 66.164219 122.047422 
L 74.414219 122.047422 
L 82.664219 122.047422 
" style="fill: none; stroke: #55a868; stroke-opacity: 0.7; stroke-width: 1.3; stroke-linecap: square"/>
    </g>
    <g id="text_14">
     <!-- float64 -->
     <g style="fill: #333333" transform="translate(91.464219 125.897422) scale(0.11 -0.11)">
      <use xlink:href="#HelveticaNeue-66"/>
      <use xlink:href="#HelveticaNeue-6c" transform="translate(29.599991 0)"/>
      <use xlink:href="#HelveticaNeue-6f" transform="translate(51.799988 0)"/>
      <use xlink:href="#HelveticaNeue-61" transform="translate(109.199982 0)"/>
      <use xlink:href="#HelveticaNeue-74" transform="translate(162.899979 0)"/>
      <use xlink:href="#HelveticaNeue-36" transform="translate(194.399963 0)"/>
      <use xlink:href="#HelveticaNeue-34" transform="translate(249.999954 0)"/>
     </g>
    </g>
   </g>
  </g>
  <g id="axes_2">
   <g id="patch_8">
    <path d="M 54.064219 302.682656 
L 536.281875 302.682656 
L 536.281875 169.717891 
L 54.064219 169.717891 
z
" style="fill: #ffffff"/>
   </g>
   <g id="matplotlib.axis_3">
    <g id="xtick_8">
     <g id="line2d_16">
      <g>
       <use xlink:href="#m8588b703ed" x="87.706789" y="302.682656" style="fill: #555555; stroke: #555555; stroke-width: 0.8"/>
      </g>
     </g>
     <g id="text_15">
      <!-- 0 -->
      <g style="fill: #333333" transform="translate(84.371164 314.751406) scale(0.12 -0.12)">
       <use xlink:href="#HelveticaNeue-30"/>
      </g>
     </g>
    </g>
    <g id="xtick_9">
     <g id="line2d_17">
      <g>
       <use xlink:href="#m8588b703ed" x="143.778675" y="302.682656" style="fill: #555555; stroke: #555555; stroke-width: 0.8"/>
      </g>
     </g>
     <g id="text_16">
      <!-- 5000 -->
      <g style="fill: #333333" transform="translate(130.436175 314.751406) scale(0.12 -0.12)">
       <use xlink:href="#HelveticaNeue-35"/>
       <use xlink:href="#HelveticaNeue-30" transform="translate(55.599991 0)"/>
       <use xlink:href="#HelveticaNeue-30" transform="translate(111.199982 0)"/>
       <use xlink:href="#HelveticaNeue-30" transform="translate(166.799973 0)"/>
      </g>
     </g>
    </g>
    <g id="xtick_10">
     <g id="line2d_18">
      <g>
       <use xlink:href="#m8588b703ed" x="199.850561" y="302.682656" style="fill: #555555; stroke: #555555; stroke-width: 0.8"/>
      </g>
     </g>
     <g id="text_17">
      <!-- 10000 -->
      <g style="fill: #333333" transform="translate(183.172436 314.751406) scale(0.12 -0.12)">
       <use xlink:href="#HelveticaNeue-31"/>
       <use xlink:href="#HelveticaNeue-30" transform="translate(55.599991 0)"/>
       <use xlink:href="#HelveticaNeue-30" transform="translate(111.199982 0)"/>
       <use xlink:href="#HelveticaNeue-30" transform="translate(166.799973 0)"/>
       <use xlink:href="#HelveticaNeue-30" transform="translate(222.399963 0)"/>
      </g>
     </g>
    </g>
    <g id="xtick_11">
     <g id="line2d_19">
      <g>
       <use xlink:href="#m8588b703ed" x="255.922447" y="302.682656" style="fill: #555555; stroke: #555555; stroke-width: 0.8"/>
      </g>
     </g>
     <g id="text_18">
      <!-- 15000 -->
      <g style="fill: #333333" transform="translate(239.244322 314.751406) scale(0.12 -0.12)">
       <use xlink:href="#HelveticaNeue-31"/>
       <use xlink:href="#HelveticaNeue-35" transform="translate(55.599991 0)"/>
       <use xlink:href="#HelveticaNeue-30" transform="translate(111.199982 0)"/>
       <use xlink:href="#HelveticaNeue-30" transform="translate(166.799973 0)"/>
       <use xlink:href="#HelveticaNeue-30" transform="translate(222.399963 0)"/>
      </g>
     </g>
    </g>
    <g id="xtick_12">
     <g id="line2d_20">
      <g>
       <use xlink:href="#m8588b703ed" x="311.994332" y="302.682656" style="fill: #555555; stroke: #555555; stroke-width: 0.8"/>
      </g>
     </g>
     <g id="text_19">
      <!-- 20000 -->
      <g style="fill: #333333" transform="translate(295.316207 314.751406) scale(0.12 -0.12)">
       <use xlink:href="#HelveticaNeue-32"/>
       <use xlink:href="#HelveticaNeue-30" transform="translate(55.599991 0)"/>
       <use xlink:href="#HelveticaNeue-30" transform="translate(111.199982 0)"/>
       <use xlink:href="#HelveticaNeue-30" transform="translate(166.799973 0)"/>
       <use xlink:href="#HelveticaNeue-30" transform="translate(222.399963 0)"/>
      </g>
     </g>
    </g>
    <g id="xtick_13">
     <g id="line2d_21">
      <g>
       <use xlink:href="#m8588b703ed" x="368.066218" y="302.682656" style="fill: #555555; stroke: #555555; stroke-width: 0.8"/>
      </g>
     </g>
     <g id="text_20">
      <!-- 25000 -->
      <g style="fill: #333333" transform="translate(351.388093 314.751406) scale(0.12 -0.12)">
       <use xlink:href="#HelveticaNeue-32"/>
       <use xlink:href="#HelveticaNeue-35" transform="translate(55.599991 0)"/>
       <use xlink:href="#HelveticaNeue-30" transform="translate(111.199982 0)"/>
       <use xlink:href="#HelveticaNeue-30" transform="translate(166.799973 0)"/>
       <use xlink:href="#HelveticaNeue-30" transform="translate(222.399963 0)"/>
      </g>
     </g>
    </g>
    <g id="xtick_14">
     <g id="line2d_22">
      <g>
       <use xlink:href="#m8588b703ed" x="424.138104" y="302.682656" style="fill: #555555; stroke: #555555; stroke-width: 0.8"/>
      </g>
     </g>
     <g id="text_21">
      <!-- 30000 -->
      <g style="fill: #333333" transform="translate(407.459979 314.751406) scale(0.12 -0.12)">
       <use xlink:href="#HelveticaNeue-33"/>
       <use xlink:href="#HelveticaNeue-30" transform="translate(55.599991 0)"/>
       <use xlink:href="#HelveticaNeue-30" transform="translate(111.199982 0)"/>
       <use xlink:href="#HelveticaNeue-30" transform="translate(166.799973 0)"/>
       <use xlink:href="#HelveticaNeue-30" transform="translate(222.399963 0)"/>
      </g>
     </g>
    </g>
    <g id="xtick_15">
     <g id="line2d_23">
      <g>
       <use xlink:href="#m8588b703ed" x="480.209989" y="302.682656" style="fill: #555555; stroke: #555555; stroke-width: 0.8"/>
      </g>
     </g>
     <g id="text_22">
      <!-- 35000 -->
      <g style="fill: #333333" transform="translate(463.531864 314.751406) scale(0.12 -0.12)">
       <use xlink:href="#HelveticaNeue-33"/>
       <use xlink:href="#HelveticaNeue-35" transform="translate(55.599991 0)"/>
       <use xlink:href="#HelveticaNeue-30" transform="translate(111.199982 0)"/>
       <use xlink:href="#HelveticaNeue-30" transform="translate(166.799973 0)"/>
       <use xlink:href="#HelveticaNeue-30" transform="translate(222.399963 0)"/>
      </g>
     </g>
    </g>
    <g id="xtick_16">
     <g id="line2d_24">
      <g>
       <use xlink:href="#m8588b703ed" x="536.281875" y="302.682656" style="fill: #555555; stroke: #555555; stroke-width: 0.8"/>
      </g>
     </g>
     <g id="text_23">
      <!-- 40000 -->
      <g style="fill: #333333" transform="translate(519.60375 314.751406) scale(0.12 -0.12)">
       <use xlink:href="#HelveticaNeue-34"/>
       <use xlink:href="#HelveticaNeue-30" transform="translate(55.599991 0)"/>
       <use xlink:href="#HelveticaNeue-30" transform="translate(111.199982 0)"/>
       <use xlink:href="#HelveticaNeue-30" transform="translate(166.799973 0)"/>
       <use xlink:href="#HelveticaNeue-30" transform="translate(222.399963 0)"/>
      </g>
     </g>
    </g>
    <g id="text_24">
     <!-- Epoch -->
     <g style="fill: #333333" transform="translate(276.511953 334.398594) scale(0.13 -0.13)">
      <defs>
       <path id="HelveticaNeue-70" d="M 429 3309 
L 429 -1261 
L 973 -1261 
L 973 442 
L 986 442 
Q 1075 294 1206 195 
Q 1338 96 1485 38 
Q 1632 -19 1782 -44 
Q 1933 -70 2054 -70 
Q 2432 -70 2717 64 
Q 3002 198 3190 432 
Q 3379 666 3472 979 
Q 3565 1293 3565 1645 
Q 3565 1997 3469 2310 
Q 3373 2624 3184 2864 
Q 2995 3104 2710 3245 
Q 2426 3386 2042 3386 
Q 1696 3386 1408 3261 
Q 1120 3136 986 2861 
L 973 2861 
L 973 3309 
L 429 3309 
z
M 2989 1683 
Q 2989 1440 2937 1209 
Q 2886 979 2771 800 
Q 2656 621 2467 512 
Q 2278 403 1997 403 
Q 1715 403 1516 508 
Q 1318 614 1193 787 
Q 1069 960 1011 1187 
Q 954 1414 954 1658 
Q 954 1888 1008 2112 
Q 1062 2336 1184 2512 
Q 1306 2688 1498 2797 
Q 1690 2906 1965 2906 
Q 2227 2906 2422 2803 
Q 2618 2701 2742 2528 
Q 2867 2355 2928 2134 
Q 2989 1914 2989 1683 
z
" transform="scale(0.015625)"/>
       <path id="HelveticaNeue-63" d="M 2656 2246 
L 3219 2246 
Q 3187 2541 3065 2755 
Q 2944 2970 2755 3110 
Q 2566 3251 2320 3318 
Q 2074 3386 1792 3386 
Q 1402 3386 1107 3248 
Q 813 3110 617 2870 
Q 422 2630 326 2307 
Q 230 1984 230 1613 
Q 230 1242 329 931 
Q 429 621 624 397 
Q 819 173 1110 51 
Q 1402 -70 1779 -70 
Q 2413 -70 2781 262 
Q 3149 595 3238 1210 
L 2682 1210 
Q 2630 826 2403 614 
Q 2176 403 1773 403 
Q 1517 403 1331 505 
Q 1146 608 1030 777 
Q 915 947 860 1164 
Q 806 1382 806 1613 
Q 806 1862 857 2096 
Q 909 2330 1027 2509 
Q 1146 2688 1344 2797 
Q 1542 2906 1837 2906 
Q 2182 2906 2387 2733 
Q 2592 2560 2656 2246 
z
" transform="scale(0.015625)"/>
       <path id="HelveticaNeue-68" d="M 410 4570 
L 410 0 
L 954 0 
L 954 1869 
Q 954 2093 1014 2281 
Q 1075 2470 1196 2611 
Q 1318 2752 1500 2829 
Q 1683 2906 1933 2906 
Q 2246 2906 2425 2726 
Q 2605 2547 2605 2240 
L 2605 0 
L 3149 0 
L 3149 2176 
Q 3149 2445 3094 2665 
Q 3040 2886 2905 3046 
Q 2771 3206 2553 3296 
Q 2336 3386 2010 3386 
Q 1862 3386 1705 3354 
Q 1549 3322 1405 3254 
Q 1261 3187 1145 3081 
Q 1030 2976 966 2822 
L 954 2822 
L 954 4570 
L 410 4570 
z
" transform="scale(0.015625)"/>
      </defs>
      <use xlink:href="#HelveticaNeue-45"/>
      <use xlink:href="#HelveticaNeue-70" transform="translate(61.099991 0)"/>
      <use xlink:href="#HelveticaNeue-6f" transform="translate(120.399979 0)"/>
      <use xlink:href="#HelveticaNeue-63" transform="translate(177.799973 0)"/>
      <use xlink:href="#HelveticaNeue-68" transform="translate(231.499969 0)"/>
     </g>
    </g>
   </g>
   <g id="matplotlib.axis_4">
    <g id="ytick_5">
     <g id="line2d_25">
      <g>
       <use xlink:href="#m6f4f2eb225" x="54.064219" y="285.648737" style="fill: #555555; stroke: #555555; stroke-width: 0.8"/>
      </g>
     </g>
     <g id="text_25">
      <!-- $\mathdefault{10^{-6}}$ -->
      <g style="fill: #333333" transform="translate(27.044219 289.933112) scale(0.12 -0.12)">
       <use xlink:href="#HelveticaNeue-31" transform="translate(0 0.173438)"/>
       <use xlink:href="#HelveticaNeue-30" transform="translate(55.599991 0.173438)"/>
       <use xlink:href="#HelveticaNeue-2212" transform="translate(112.104786 36.365625) scale(0.7)"/>
       <use xlink:href="#HelveticaNeue-36" transform="translate(154.104776 36.365625) scale(0.7)"/>
      </g>
     </g>
    </g>
    <g id="ytick_6">
     <g id="line2d_26">
      <g>
       <use xlink:href="#m6f4f2eb225" x="54.064219" y="256.611712" style="fill: #555555; stroke: #555555; stroke-width: 0.8"/>
      </g>
     </g>
     <g id="text_26">
      <!-- $\mathdefault{10^{-4}}$ -->
      <g style="fill: #333333" transform="translate(27.044219 260.896087) scale(0.12 -0.12)">
       <use xlink:href="#HelveticaNeue-31" transform="translate(0 0.173438)"/>
       <use xlink:href="#HelveticaNeue-30" transform="translate(55.599991 0.173438)"/>
       <use xlink:href="#HelveticaNeue-2212" transform="translate(112.104786 36.365625) scale(0.7)"/>
       <use xlink:href="#HelveticaNeue-34" transform="translate(154.104776 36.365625) scale(0.7)"/>
      </g>
     </g>
    </g>
    <g id="ytick_7">
     <g id="line2d_27">
      <g>
       <use xlink:href="#m6f4f2eb225" x="54.064219" y="227.574688" style="fill: #555555; stroke: #555555; stroke-width: 0.8"/>
      </g>
     </g>
     <g id="text_27">
      <!-- $\mathdefault{10^{-2}}$ -->
      <g style="fill: #333333" transform="translate(27.044219 231.859063) scale(0.12 -0.12)">
       <use xlink:href="#HelveticaNeue-31" transform="translate(0 0.173438)"/>
       <use xlink:href="#HelveticaNeue-30" transform="translate(55.599991 0.173438)"/>
       <use xlink:href="#HelveticaNeue-2212" transform="translate(112.104786 36.365625) scale(0.7)"/>
       <use xlink:href="#HelveticaNeue-32" transform="translate(154.104776 36.365625) scale(0.7)"/>
      </g>
     </g>
    </g>
    <g id="ytick_8">
     <g id="line2d_28">
      <g>
       <use xlink:href="#m6f4f2eb225" x="54.064219" y="198.537664" style="fill: #555555; stroke: #555555; stroke-width: 0.8"/>
      </g>
     </g>
     <g id="text_28">
      <!-- $\mathdefault{10^{0}}$ -->
      <g style="fill: #333333" transform="translate(32.084219 202.822039) scale(0.12 -0.12)">
       <use xlink:href="#HelveticaNeue-31" transform="translate(0 0.173438)"/>
       <use xlink:href="#HelveticaNeue-30" transform="translate(55.599991 0.173438)"/>
       <use xlink:href="#HelveticaNeue-30" transform="translate(112.104786 36.365625) scale(0.7)"/>
      </g>
     </g>
    </g>
    <g id="text_29">
     <!-- CE Loss -->
     <g style="fill: #333333" transform="translate(16.482813 260.516367) rotate(-90) scale(0.13 -0.13)">
      <use xlink:href="#HelveticaNeue-43"/>
      <use xlink:href="#HelveticaNeue-45" transform="translate(72.199982 0)"/>
      <use xlink:href="#HelveticaNeue-20" transform="translate(133.299973 0)"/>
      <use xlink:href="#HelveticaNeue-4c" transform="translate(161.09996 0)"/>
      <use xlink:href="#HelveticaNeue-6f" transform="translate(216.699951 0)"/>
      <use xlink:href="#HelveticaNeue-73" transform="translate(274.099945 0)"/>
      <use xlink:href="#HelveticaNeue-73" transform="translate(324.09993 0)"/>
     </g>
    </g>
   </g>
   <g id="line2d_29">
    <path d="M 87.706789 188.258189 
L 87.807719 188.682366 
L 87.830148 188.67784 
L 88.06565 188.5413 
L 88.312366 187.9728 
L 88.78337 185.893444 
L 89.388946 181.92784 
L 89.736592 180.47371 
L 90.016951 180.152408 
L 90.375811 180.094935 
L 94.693346 180.48385 
L 97.41844 180.724549 
L 100.547251 180.788982 
L 139.943358 179.492594 
L 144.58611 179.374627 
L 234.637559 177.710362 
L 240.827895 177.639051 
L 248.29667 177.560471 
L 255.249584 177.500938 
L 260.755843 177.453885 
L 266.609748 177.40863 
L 271.577717 177.377494 
L 294.219544 177.309802 
L 298.694081 177.31245 
L 303.112546 177.320635 
L 305.501208 177.324999 
L 310.244889 177.341377 
L 314.528781 177.359814 
L 317.018373 177.371728 
L 323.018065 177.403103 
L 325.36187 177.416735 
L 340.209705 177.525954 
L 344.52724 177.564041 
L 348.3962 177.601442 
L 349.293351 177.60907 
L 351.401653 177.628616 
L 352.881951 177.641596 
L 353.80153 177.651355 
L 355.046326 177.661652 
L 358.141494 177.690066 
L 359.195646 177.700197 
L 360.485299 177.713881 
L 361.53945 177.723306 
L 362.750603 177.736135 
L 363.490752 177.741843 
L 364.141186 177.750161 
L 364.713119 177.753737 
L 365.632698 177.76184 
L 367.40457 177.77789 
L 368.48115 177.786766 
L 376.723717 177.853013 
L 378.506803 177.865243 
L 387.590449 177.938042 
L 388.622171 177.946604 
L 389.496893 177.955402 
L 391.481837 177.973504 
L 392.468703 177.983916 
L 393.096708 177.988562 
L 403.077503 178.078469 
L 404.961519 178.094719 
L 415.974037 178.17726 
L 418.003839 178.193015 
L 422.882093 178.229069 
L 425.035254 178.244678 
L 427.53606 178.263407 
L 428.365924 178.267088 
L 428.9715 178.272784 
L 431.449878 178.290971 
L 432.515243 178.297096 
L 433.401179 178.303845 
L 436.552419 178.326406 
L 437.427141 178.332919 
L 438.582221 178.340522 
L 439.950375 178.351736 
L 441.228814 178.360234 
L 442.585754 178.371511 
L 443.561405 178.377341 
L 444.974416 178.386751 
L 447.452794 178.404544 
L 449.000378 178.415581 
L 489.416993 178.599329 
L 490.482359 178.603146 
L 493.353239 178.615732 
L 494.250389 178.617919 
L 495.214826 178.621781 
L 497.053984 178.628549 
L 534.420288 178.742457 
L 535.126794 178.743366 
L 536.293089 178.7462 
L 536.293089 178.7462 
" clip-path="url(#pfbd0bd2a99)" style="fill: none; stroke: #4c72b0; stroke-opacity: 0.7; stroke-width: 1.3; stroke-linecap: square"/>
   </g>
   <g id="line2d_30">
    <path d="M 87.706789 188.697 
L 88.043221 188.594943 
L 88.177793 188.211432 
L 88.929157 184.853993 
L 89.635662 180.753374 
L 89.871164 180.638584 
L 90.93653 180.50996 
L 99.560386 178.209101 
L 101.713546 177.931009 
L 103.743349 177.90273 
L 108.565531 178.195822 
L 122.751718 179.121398 
L 145.528118 180.265904 
L 149.139147 180.411431 
L 160.633884 180.872771 
L 161.676821 180.913615 
L 162.686115 180.955816 
L 164.940205 181.053151 
L 166.297144 181.115281 
L 167.093365 181.156166 
L 168.326947 181.217858 
L 170.323106 181.328054 
L 171.4109 181.391318 
L 172.913627 181.484784 
L 174.012636 181.55635 
L 175.347147 181.65294 
L 175.907866 181.695204 
L 177.051732 181.788967 
L 178.823604 181.952332 
L 179.922613 182.063956 
L 187.458674 183.333753 
L 188.52404 183.646893 
L 189.309046 183.919213 
L 191.327634 184.857444 
L 192.93129 185.963816 
L 194.28823 187.309353 
L 195.432096 188.85252 
L 196.340461 190.480359 
L 197.282468 192.629056 
L 198.202047 195.227892 
L 199.301056 198.978473 
L 204.403598 218.696208 
L 204.526956 219.103648 
L 205.547464 222.479397 
L 205.726894 223.072419 
L 206.242756 224.908872 
L 206.61283 226.329721 
L 208.182843 233.766628 
L 209.629498 243.091195 
L 211.793872 258.671887 
L 212.634951 263.508423 
L 215.999264 279.181797 
L 216.660912 281.160875 
L 217.726278 283.505354 
L 218.780429 285.128667 
L 219.901867 286.372344 
L 221.11302 287.371099 
L 222.918535 288.430879 
L 224.858622 289.178347 
L 227.494 289.903004 
L 230.880742 290.62054 
L 231.744249 290.791786 
L 234.345985 291.285244 
L 236.140285 291.640588 
L 238.001872 292.015181 
L 245.997723 293.641695 
L 255.877589 295.516219 
L 259.275545 295.793645 
L 264.2323 295.858006 
L 267.058323 295.800772 
L 274.370097 295.705655 
L 300.252879 296.079074 
L 306.106784 296.128417 
L 354.597751 296.395328 
L 362.066526 296.415589 
L 458.835386 296.510571 
L 459.609179 296.514505 
L 461.302549 296.520199 
L 461.975412 296.522865 
L 462.794062 296.527189 
L 463.646354 296.52873 
L 464.364074 296.532661 
L 465.014508 296.53343 
L 470.408624 296.549044 
L 470.890842 296.548007 
L 471.619776 296.550509 
L 472.8085 296.556607 
L 473.111289 296.553882 
L 473.604721 296.557972 
L 474.131797 296.558337 
L 501.023873 296.604975 
L 501.248161 296.611251 
L 501.472448 296.605587 
L 501.752808 296.611904 
L 501.954667 296.605827 
L 502.201383 296.609388 
L 523.486271 296.627071 
L 523.643272 296.618595 
L 523.822702 296.625384 
L 524.04699 296.620127 
L 524.316135 296.623914 
L 524.820782 296.623061 
L 527.422517 296.629376 
L 527.613161 296.627222 
L 528.151452 296.622997 
L 528.386953 296.625122 
L 529.183174 296.631549 
L 529.340176 296.624195 
L 529.620535 296.629872 
L 529.844823 296.623746 
L 530.046681 296.630964 
L 530.24854 296.621777 
L 530.405541 296.631402 
L 530.6074 296.624056 
L 530.809259 296.634324 
L 530.955046 296.631631 
L 531.156905 296.625575 
L 531.381192 296.630543 
L 531.807339 296.62746 
L 532.166199 296.63123 
L 532.738132 296.625788 
L 532.917562 296.632341 
L 533.186707 296.6271 
L 533.410994 296.636695 
L 533.567996 296.624614 
L 533.724997 296.63385 
L 533.949285 296.628928 
L 534.319359 296.632137 
L 535.429582 296.6292 
L 535.676299 296.635302 
L 535.923015 296.632187 
L 536.270661 296.636358 
L 536.270661 296.636358 
" clip-path="url(#pfbd0bd2a99)" style="fill: none; stroke: #55a868; stroke-opacity: 0.7; stroke-width: 1.3; stroke-linecap: square"/>
   </g>
   <g id="patch_9">
    <path d="M 54.064219 302.682656 
L 54.064219 169.717891 
" style="fill: none; stroke: #cccccc; stroke-width: 0.8; stroke-linejoin: miter; stroke-linecap: square"/>
   </g>
   <g id="patch_10">
    <path d="M 536.281875 302.682656 
L 536.281875 169.717891 
" style="fill: none; stroke: #cccccc; stroke-width: 0.8; stroke-linejoin: miter; stroke-linecap: square"/>
   </g>
   <g id="patch_11">
    <path d="M 54.064219 302.682656 
L 536.281875 302.682656 
" style="fill: none; stroke: #cccccc; stroke-width: 0.8; stroke-linejoin: miter; stroke-linecap: square"/>
   </g>
   <g id="patch_12">
    <path d="M 54.064219 169.717891 
L 536.281875 169.717891 
" style="fill: none; stroke: #cccccc; stroke-width: 0.8; stroke-linejoin: miter; stroke-linecap: square"/>
   </g>
   <g id="legend_2">
    <g id="patch_13">
     <path d="M 61.764219 297.182656 
L 161.456875 297.182656 
Q 163.656875 297.182656 163.656875 294.982656 
L 163.656875 261.473906 
Q 163.656875 259.273906 161.456875 259.273906 
L 61.764219 259.273906 
Q 59.564219 259.273906 59.564219 261.473906 
L 59.564219 294.982656 
Q 59.564219 297.182656 61.764219 297.182656 
z
" style="fill: #ffffff; opacity: 0.9; stroke: #cccccc; stroke-width: 0.5; stroke-linejoin: miter"/>
    </g>
    <g id="line2d_31">
     <path d="M 66.164219 269.878594 
L 74.414219 269.878594 
L 82.664219 269.878594 
" style="fill: none; stroke: #4c72b0; stroke-opacity: 0.7; stroke-width: 1.3; stroke-linecap: square"/>
    </g>
    <g id="text_30">
     <!-- no weight init -->
     <g style="fill: #333333" transform="translate(91.464219 273.728594) scale(0.11 -0.11)">
      <defs>
       <path id="HelveticaNeue-6e" d="M 410 3309 
L 410 0 
L 954 0 
L 954 1869 
Q 954 2093 1014 2281 
Q 1075 2470 1196 2611 
Q 1318 2752 1500 2829 
Q 1683 2906 1933 2906 
Q 2246 2906 2425 2726 
Q 2605 2547 2605 2240 
L 2605 0 
L 3149 0 
L 3149 2176 
Q 3149 2445 3094 2665 
Q 3040 2886 2905 3046 
Q 2771 3206 2553 3296 
Q 2336 3386 2010 3386 
Q 1274 3386 934 2784 
L 922 2784 
L 922 3309 
L 410 3309 
z
" transform="scale(0.015625)"/>
       <path id="HelveticaNeue-77" d="M 3686 0 
L 4742 3309 
L 4179 3309 
L 3437 602 
L 3424 602 
L 2733 3309 
L 2138 3309 
L 1472 602 
L 1459 602 
L 710 3309 
L 109 3309 
L 1171 0 
L 1760 0 
L 2426 2630 
L 2438 2630 
L 3110 0 
L 3686 0 
z
" transform="scale(0.015625)"/>
       <path id="HelveticaNeue-65" d="M 2707 1971 
L 806 1971 
Q 819 2163 889 2332 
Q 960 2502 1081 2630 
Q 1203 2758 1372 2832 
Q 1542 2906 1754 2906 
Q 1958 2906 2128 2832 
Q 2298 2758 2422 2633 
Q 2547 2509 2620 2336 
Q 2694 2163 2707 1971 
z
M 3232 1050 
L 2694 1050 
Q 2624 723 2403 563 
Q 2182 403 1837 403 
Q 1568 403 1369 492 
Q 1171 582 1043 732 
Q 915 883 857 1078 
Q 800 1274 806 1491 
L 3283 1491 
Q 3296 1792 3229 2125 
Q 3162 2458 2986 2739 
Q 2810 3021 2518 3203 
Q 2227 3386 1786 3386 
Q 1446 3386 1161 3258 
Q 877 3130 669 2899 
Q 461 2669 345 2355 
Q 230 2042 230 1664 
Q 243 1286 342 966 
Q 442 646 640 416 
Q 838 186 1129 58 
Q 1421 -70 1818 -70 
Q 2381 -70 2752 211 
Q 3123 493 3232 1050 
z
" transform="scale(0.015625)"/>
       <path id="HelveticaNeue-69" d="M 986 3904 
L 986 4570 
L 442 4570 
L 442 3904 
L 986 3904 
z
M 442 3309 
L 442 0 
L 986 0 
L 986 3309 
L 442 3309 
z
" transform="scale(0.015625)"/>
       <path id="HelveticaNeue-67" d="M 3264 282 
L 3264 3309 
L 2752 3309 
L 2752 2835 
L 2746 2835 
Q 2598 3110 2336 3248 
Q 2074 3386 1760 3386 
Q 1331 3386 1036 3222 
Q 742 3059 563 2806 
Q 384 2554 307 2243 
Q 230 1933 230 1638 
Q 230 1299 323 995 
Q 416 691 601 464 
Q 787 237 1062 102 
Q 1338 -32 1709 -32 
Q 2029 -32 2313 112 
Q 2598 256 2739 563 
L 2752 563 
L 2752 346 
Q 2752 70 2697 -160 
Q 2643 -390 2521 -553 
Q 2400 -717 2214 -809 
Q 2029 -902 1760 -902 
Q 1626 -902 1478 -873 
Q 1331 -845 1206 -781 
Q 1082 -717 995 -614 
Q 909 -512 902 -365 
L 358 -365 
Q 371 -634 499 -819 
Q 627 -1005 822 -1120 
Q 1018 -1235 1258 -1286 
Q 1498 -1338 1728 -1338 
Q 2522 -1338 2893 -934 
Q 3264 -531 3264 282 
z
M 1741 442 
Q 1472 442 1293 554 
Q 1114 666 1005 848 
Q 896 1030 851 1254 
Q 806 1478 806 1702 
Q 806 1939 860 2156 
Q 915 2374 1033 2540 
Q 1152 2707 1337 2806 
Q 1523 2906 1786 2906 
Q 2042 2906 2221 2803 
Q 2400 2701 2512 2531 
Q 2624 2362 2675 2150 
Q 2726 1939 2726 1722 
Q 2726 1491 2672 1260 
Q 2618 1030 2502 848 
Q 2387 666 2198 554 
Q 2010 442 1741 442 
z
" transform="scale(0.015625)"/>
      </defs>
      <use xlink:href="#HelveticaNeue-6e"/>
      <use xlink:href="#HelveticaNeue-6f" transform="translate(55.599991 0)"/>
      <use xlink:href="#HelveticaNeue-20" transform="translate(112.999985 0)"/>
      <use xlink:href="#HelveticaNeue-77" transform="translate(140.799973 0)"/>
      <use xlink:href="#HelveticaNeue-65" transform="translate(216.59996 0)"/>
      <use xlink:href="#HelveticaNeue-69" transform="translate(270.299957 0)"/>
      <use xlink:href="#HelveticaNeue-67" transform="translate(292.499954 0)"/>
      <use xlink:href="#HelveticaNeue-68" transform="translate(349.899948 0)"/>
      <use xlink:href="#HelveticaNeue-74" transform="translate(405.499939 0)"/>
      <use xlink:href="#HelveticaNeue-20" transform="translate(436.999924 0)"/>
      <use xlink:href="#HelveticaNeue-69" transform="translate(464.799911 0)"/>
      <use xlink:href="#HelveticaNeue-6e" transform="translate(486.999908 0)"/>
      <use xlink:href="#HelveticaNeue-69" transform="translate(542.599899 0)"/>
      <use xlink:href="#HelveticaNeue-74" transform="translate(564.799896 0)"/>
     </g>
    </g>
    <g id="line2d_32">
     <path d="M 66.164219 284.432969 
L 74.414219 284.432969 
L 82.664219 284.432969 
" style="fill: none; stroke: #55a868; stroke-opacity: 0.7; stroke-width: 1.3; stroke-linecap: square"/>
    </g>
    <g id="text_31">
     <!-- weight init -->
     <g style="fill: #333333" transform="translate(91.464219 288.282969) scale(0.11 -0.11)">
      <use xlink:href="#HelveticaNeue-77"/>
      <use xlink:href="#HelveticaNeue-65" transform="translate(75.799988 0)"/>
      <use xlink:href="#HelveticaNeue-69" transform="translate(129.499985 0)"/>
      <use xlink:href="#HelveticaNeue-67" transform="translate(151.699982 0)"/>
      <use xlink:href="#HelveticaNeue-68" transform="translate(209.099976 0)"/>
      <use xlink:href="#HelveticaNeue-74" transform="translate(264.699966 0)"/>
      <use xlink:href="#HelveticaNeue-20" transform="translate(296.199951 0)"/>
      <use xlink:href="#HelveticaNeue-69" transform="translate(323.999939 0)"/>
      <use xlink:href="#HelveticaNeue-6e" transform="translate(346.199936 0)"/>
      <use xlink:href="#HelveticaNeue-69" transform="translate(401.799927 0)"/>
      <use xlink:href="#HelveticaNeue-74" transform="translate(423.999924 0)"/>
     </g>
    </g>
   </g>
  </g>
 </g>
 <defs>
  <clipPath id="p95885aa9df">
   <rect x="54.064219" y="7.2" width="482.217656" height="132.964766"/>
  </clipPath>
  <clipPath id="pfbd0bd2a99">
   <rect x="54.064219" y="169.717891" width="482.217656" height="132.964766"/>
  </clipPath>
 </defs>
</svg>
